<?xml version="1.0" standalone="no"?>
<!DOCTYPE svg PUBLIC "-//W3C//DTD SVG 1.1//EN" "http://www.w3.org/Graphics/SVG/1.1/DTD/svg11.dtd" >
<svg xmlns="http://www.w3.org/2000/svg">
<metadata>Generated by IcoMoon</metadata>
<defs>
<font id="delicons" horiz-adv-x="512">
<font-face units-per-em="512" ascent="480" descent="-32" />
<missing-glyph horiz-adv-x="512" />
<glyph unicode="&#x20;" d="" horiz-adv-x="256" />
<glyph unicode="&#xe000;" d="M235.993 212.561v-171.291c0-9.957-3.989-18.818-11.963-26.582-7.976-7.764-17.087-11.655-27.316-11.655-10.233 0-19.335 3.892-27.31 11.655-7.981 7.764-11.969 16.629-11.969 26.582 0 5.175-1.948 9.649-5.83 13.442-3.889 3.78-8.497 5.676-13.808 5.676-5.327 0-9.928-1.894-13.81-5.676-3.886-3.793-5.83-8.277-5.83-13.442 0-20.71 7.773-38.63 23.324-53.767 15.549-15.132 33.957-22.705 55.242-22.705 21.273 0 39.687 7.571 55.238 22.705 15.544 15.137 23.326 33.055 23.326 53.767v171.291c0 0 235.659 0 235.691 0 2.734 0.075-0.762 34.234-1.914 44.78-0.149 1.373-0.252 2.35-0.307 2.792-3.038 26.927-17.343 52.95-33.541 74.634-16.884 22.596-36.778 41.218-59.688 55.857-22.918 14.638-48.134 25.936-75.649 33.899-21.193 6.139-42.733 9.884-64.602 11.297v21.865c0 5.17-1.95 9.649-5.832 13.438-3.887 3.782-8.488 5.676-13.803 5.676-5.325 0-9.928-1.895-13.814-5.676-3.89-3.792-5.828-8.277-5.828-13.438v-21.869c-31.701-1.912-62.046-8.416-90.992-19.649-34.884-13.547-65.369-33.902-91.453-61.091-14.053-14.649-26.053-31.14-35.367-49.023-8.239-15.818-14.090-32.478-16.491-50.090-0.468-3.428-2.451-43.398-1.39-43.398l235.686-0.004z" />
<glyph unicode="&#xe001;" d="M293.493 217.6l181.018-181.018c-46.325-46.328-110.325-74.982-181.018-74.982-141.387 0-256.004 114.616-256.004 256 0 141.385 114.617 256 256.004 256 70.433 0 134.225-28.444 180.509-74.473l-180.509-181.527z" />
<glyph unicode="&#xe002;" d="M128.205 335.238c1.762 0 3.166 1.461 3.166 3.195v131.994c0 1.758-1.404 3.173-3.166 3.173h-124.97c-1.787 0-3.235-1.415-3.235-3.173v-131.994c0-1.734 1.448-3.195 3.235-3.195h124.97zM319.65 335.238c1.764 0 3.186 1.461 3.186 3.195v131.994c0 1.758-1.422 3.173-3.186 3.173h-124.948c-1.811 0-3.211-1.415-3.211-3.173v-131.994c0-1.734 1.424-3.195 3.234-3.195h124.925zM508.786 100.009h-124.99c-1.81 0-3.169-1.461-3.169-3.243v-131.971c0-1.782 1.359-3.195 3.169-3.195h124.97c1.716 0 3.234 1.413 3.234 3.195v131.971c0 1.782-1.495 3.243-3.214 3.243zM319.759 149.127c1.746 0 3.214 1.462 3.214 3.193v131.974c0 1.779-1.445 3.218-3.214 3.218h-125.010c-1.765 0-3.191-1.438-3.191-3.218v-131.974c0-1.731 1.424-3.193 3.211-3.193h124.99zM321.053 100.009h-125.038c-1.743 0-3.212-1.461-3.212-3.243v-131.971c0-1.782 1.448-3.195 3.212-3.195h125.038c1.672 0 3.12 1.413 3.12 3.195v131.971c0 1.782-1.423 3.243-3.12 3.243zM128.182 100.009h-125.061c-1.764 0-3.121-1.461-3.121-3.243v-131.971c0-1.782 1.357-3.195 3.121-3.195h125.038c1.696 0 3.168 1.413 3.168 3.195v131.971c-0.001 1.782-1.449 3.243-3.145 3.243zM508.829 149.127c1.721 0 3.171 1.462 3.171 3.193v131.974c0 1.779-1.428 3.218-3.171 3.218h-125.011c-1.719 0-3.144-1.438-3.144-3.218v-131.974c0-1.731 1.423-3.193 3.144-3.193h125.011zM508.786 335.238c1.812 0 3.214 1.461 3.214 3.195v131.994c0 1.758-1.382 3.173-3.214 3.173h-124.966c-1.741 0-3.214-1.415-3.214-3.173v-131.994c0-1.734 1.428-3.195 3.214-3.195h124.966zM128.114 149.127c1.811 0 3.191 1.462 3.191 3.193v131.974c0 1.779-1.38 3.218-3.191 3.218h-124.945c-1.811 0-3.167-1.438-3.167-3.218v-131.974c0-1.731 1.356-3.193 3.167-3.193h124.945z" />
<glyph unicode="&#xe003;" d="M116.694 250.019h-116.694v-64.82h116.694v64.82zM223.646-38.4h64.771v116.659h-64.771v-116.659zM395.307 250.019v-64.82h116.693v64.82h-116.693zM223.646 356.93h64.771v116.67h-64.771v-116.67zM52.091 59.466l45.83-45.834 82.474 82.481-45.83 45.853-82.474-82.5zM52.091 375.715l82.474-82.479 45.83 45.808-82.475 82.501-45.829-45.83zM331.652 96.177l82.452-82.502 45.87 45.791-82.561 82.543-45.761-45.832z" />
<glyph unicode="&#xe004;" d="M512 217.6c0-80.076-65.505-145-146.286-145-80.782 0-146.282 64.924-146.282 145 0 40.024-32.761 72.5-73.145 72.5-40.38 0-73.143-32.476-73.143-72.5 0-40.026 32.762-72.5 73.143-72.5 4.464 0 8.786 0.539 13.027 1.3l36.342-64.734c-15.465-5.511-31.916-9.063-49.369-9.063-80.784-0.003-146.287 64.921-146.287 144.997 0 80.077 65.503 145 146.285 145 80.786 0 146.285-64.923 146.285-145 0-40.026 32.764-72.5 73.141-72.5 40.385 0 73.147 32.474 73.147 72.5v0c0 40.024-32.763 72.5-73.147 72.5-4.464 0-8.781-0.54-13.022-1.304l-36.343 64.739c15.466 5.512 31.918 9.062 49.365 9.062 80.784 0.003 146.289-64.92 146.289-144.997v0z" />
<glyph unicode="&#xe005;" d="M0.001 0.882c0-21.696 17.734-39.282 39.607-39.282h432.784c21.87 0 39.606 17.586 39.606 39.282v240.149h-511.997v-240.149zM472.805 427.516h-215.641c-66.326 0-40.144 46.084-95.502 46.084h-72.449c-57.407 0-89.213-34.248-89.213-92.902 0-43.029 0.052-68.562 0.052-68.562h511.948v68.562c0 29.17-11.345 46.818-39.195 46.818z" />
<glyph unicode="&#xe006;" d="M465.225 398.605c-25.831 0-46.771-20.668-46.771-46.166 0-7.879 2.016-15.286 5.539-21.78-92.069-41.16-134.302-5.063-153.257 29.49 18.605 6.103 32.027 23.39 32.027 43.786 0 25.498-20.94 46.165-46.768 46.165-25.826 0-46.77-20.669-46.77-46.165 0-20.417 13.444-37.712 32.064-43.797-32.458-53.65-104.612-40.965-151.337-25.404 2.297 5.46 3.582 11.437 3.582 17.71 0 25.502-20.943 46.165-46.769 46.165-25.826 0-46.765-20.665-46.765-46.165 0-25.492 20.939-46.158 46.767-46.158 2.977 0 5.886 0.302 8.715 0.823l38.058-133.444v-50.523h324.917v48.632l38.389 135.286c2.723-0.483 5.521-0.774 8.387-0.774 25.825 0 46.768 20.666 46.768 46.158 0.001 25.5-20.953 46.161-46.776 46.161zM92.841 54.12h326.318v-69.020h-326.318v69.020z" />
<glyph unicode="&#xe007;" d="M184.090 473.6h143.82v-117.183h-143.82v117.183zM327.935 211.059v73.644h-143.82v-73.621c-60.807-25.671-103.115-83.095-103.115-149.736v-99.746l350 0.001v99.745c0 66.641-42.357 124.017-103.065 149.713z" />
<glyph unicode="&#xe008;" d="M0 101.151l81.455-139.551h349.091l81.454 139.551zM361.891 473.6l-209.454-302.674h209.454z" />
<glyph unicode="&#xe009;" d="M107.25 182.907c1.17-5.768 8.86-46.716-5.934-61.525-32.328-32.313-76.926-62.29-92.588-77.942-15.66-15.657-9.444-39.012 12.229-60.675 21.674-21.669 44.58-28.364 60.724-12.228 16.163 16.136 45.668 60.236 77.956 92.509 14.127 14.123 51.119 8.111 60.3 6.373 22.926-9.118 47.202-13.373 71.519-13.757l-197.567 197.459c0.406-23.864 4.523-47.665 13.361-70.214zM453.262 414.878c-96.077 96.058-222.35 62.452-300.949-16.155-18.51-18.476-32.623-39.657-42.402-62.257l264.781-264.784c22.641 9.761 43.861 23.856 62.348 42.358 78.66 78.628 112.342 204.761 16.222 300.838z" />
<glyph unicode="&#xe00a;" d="M494.53 205.963v46.546h-255.983v221.091c-122.097 0-221.077-98.986-221.077-221.091 0-51.228 17.427-98.378 46.669-135.868-27.497-13.081-46.504-41.111-46.504-73.586 0-44.986 36.467-81.455 81.449-81.455 43.675 0 79.315 34.377 81.352 77.552 18.52-5.032 38-7.733 58.113-7.733 20.128 0 39.623 2.701 58.153 7.743 2.031-43.179 37.671-77.562 81.35-77.562 44.982 0 81.449 36.469 81.449 81.455 0 32.504-19.046 60.555-46.583 73.622 20.121 25.8 34.679 56.155 41.778 89.286h39.834z" />
<glyph unicode="&#xe00b;" d="M508.582 184.333c7.162 9.864 2.173 24.53-6.692 20.971l-77.872-48.478c-28.256 8.341-107.496 32.020-116.775 36.377l81.529 97.261c11.351 17.312 10.421 56.127-29.086 39.648l-165.664-103.707c0 0-169.053 62.296-191.818 11.501 0 0-9.717-24.674 11.651-31.982l388.3-104.823 62.412 1.338c11.211 3.395 11.181 14.79 7.884 17.406-2.366 1.895-4.163 4.246-2.737 6.517 0.012 0.012 18.137 29.384 38.868 57.971z" />
<glyph unicode="&#xe00c;" d="M511.4 234.666c-8.4 127.8-110.534 229.932-238.334 238.334v0.6h-34.132v-0.6c-127.8-8.4-229.932-110.534-238.334-238.334h-0.6v-34.132h0.6c8.402-127.8 110.534-229.934 238.334-238.334v-0.6h34.132v0.6c127.8 8.4 229.934 110.534 238.334 238.334h0.6v34.132h-0.6zM160.268 417.799c-16.501-21.932-30.201-49.401-40.134-80.733h-51.133c22.233 34.734 53.865 62.801 91.267 80.733zM51.135 302.934h59.999c-4.568-21.567-7.466-44.467-8.401-68.266h-67.933c1.801 24.032 7.468 46.997 16.335 68.266zM34.8 200.534h67.933c0.933-23.802 3.833-46.702 8.401-68.268h-59.999c-8.867 21.271-14.534 44.236-16.335 68.268zM69.001 98.134h51.065c10.001-31.334 23.666-58.803 40.202-80.734-37.402 17.931-69.034 46-91.267 80.734zM238.934-2.068c-35.067 9.365-65.301 47.068-83.633 100.202h83.633v-100.202zM238.934 132.266h-93.2c-4.834 21.271-7.866 44.236-8.867 68.268h102.067v-68.268zM238.934 234.666h-102.067c1.001 24.032 4.033 46.999 8.867 68.266h93.2v-68.266zM238.934 337.066h-83.635c18.332 53.134 48.566 90.833 83.633 100.201v-100.201h0.002zM443 337.066h-51.063c-10.003 31.332-23.634 58.801-40.2 80.733 37.395-17.932 69.032-45.999 91.263-80.733zM273.066 437.267c35.066-9.367 65.302-47.067 83.634-100.201h-83.634v100.201zM273.066 302.934h93.202c4.831-21.267 7.802-44.234 8.868-68.266h-102.068v68.266h-0.002zM273.066 200.534h102.067c-1.002-24.031-4.034-46.997-8.868-68.268h-93.202v68.268h0.003zM273.066-2.068v100.202h83.634c-18.332-53.134-48.568-90.834-83.634-100.202zM351.734 17.4c16.497 21.937 30.199 49.402 40.199 80.734h51.064c-22.228-34.734-53.865-62.803-91.263-80.734zM460.866 132.266h-60c4.567 21.565 7.466 44.466 8.402 68.268h67.929c-1.797-24.032-7.463-46.997-16.331-68.268zM409.269 234.666c-0.937 23.799-3.835 46.699-8.402 68.266h60c8.868-21.267 14.534-44.234 16.334-68.266h-67.932z" />
<glyph unicode="&#xe00d;" d="M255.994 473.602c-141.156 0-255.993-114.841-255.993-255.996 0-141.15 114.837-256.004 255.993-256.004 141.157 0 256.007 114.854 256.007 256.004 0 141.155-114.836 255.996-256.007 255.996zM255.994 69.174c-81.938 0-148.396 66.428-148.396 148.432 0 81.925 66.444 148.413 148.396 148.413 81.943 0 148.423-66.487 148.423-148.413 0-82.013-66.466-148.432-148.423-148.432zM255.994 310.351c-10.361 0-20.312-1.724-29.615-4.859 25.447-3.568 45.033-25.414 45.033-51.842 0-28.919-23.445-52.363-52.363-52.363-26.002 0-47.569 18.957-51.657 43.803-2.694-8.685-4.147-17.917-4.147-27.485 0-51.257 41.514-92.766 92.749-92.766 51.25 0 92.764 41.509 92.764 92.766 0.013 51.181-41.514 92.746-92.764 92.746z" />
<glyph unicode="&#xe00e;" d="M477.091 286.846h-442.182c-19.28 0-34.909-15.6-34.909-34.839v-290.407h73.749v230.38c0 13.699 11.127 24.801 24.853 24.801h314.795c13.728 0 24.853-11.104 24.853-24.801v-230.38h73.75v290.407c0 19.239-15.63 34.839-34.909 34.839zM418.909 423.829c0 27.489-21.88 49.771-48.873 49.771h-228.072c-26.992 0-48.873-22.282-48.873-49.771v-66.36h325.818v66.36zM120.294-38.321h67.052v147.443l-67.052-20.081zM257.164-38.321h134.54v208.652l-134.54-40.297z" />
<glyph unicode="&#xe00f;" d="M263.625 284.278c-4.211 4.188-11.013 4.188-15.226 0l-154.053-153.76c-2.338-2.363-1.275-5.968 2.059-5.968l78.125-0.027v-155.514c0-4.098 3.334-7.409 7.405-7.409h148.109c4.077 0 7.408 3.312 7.408 7.409v155.468l76.926-0.022c4.536 0 5.925 3.127 2.983 6.063l-153.736 153.76zM493.382 473.6h-474.764c-10.282 0-18.618-8.336-18.618-18.618v-79.127c0-10.282 8.336-18.618 18.618-18.618h474.764c10.282 0 18.618 8.336 18.618 18.618v79.127c0 10.282-8.336 18.618-18.618 18.618z" />
<glyph unicode="&#xe010;" d="M511.102 35.068c-71.177 140.914-267.635 368.914-426.352 437.592 0 0-15.656 7.091-11.392-17.689 2.674-15.372 20.959-262.598 20.959-262.598l-90.2-89.736c0 0-10.543-12.209 2.11-24.8 12.651-12.6 101.008-100.507 111.96-111.4 10.968-10.882 22.816 0 22.816 0l84.55 84.128c0 0 263.478-23.998 276.998-24.7 13.537-0.706 8.551 9.203 8.551 9.203zM430.502 262.193c6.275-6.26 16.523-6.26 22.8 0l23.462 140.832c2.781 18.787-5.289 23.297-21.246 18.787l-139.104-23.437c-6.295-6.26-6.295-16.42 0-22.7l114.088-113.482z" />
<glyph unicode="&#xe011;" d="M436.566 473.6h-361.128c-41.595 0-75.438-33.843-75.438-75.437v-361.125c0-41.595 33.843-75.438 75.438-75.438h361.128c41.591 0 75.434 33.843 75.434 75.438v361.125c0 41.594-33.843 75.437-75.434 75.437zM464.002 38.163c0-15.779-12.779-28.562-28.565-28.562h-358.905c-15.75 0-28.532 12.782-28.532 28.562v358.875c0 15.783 12.782 28.565 28.532 28.565h358.905c15.786 0 28.565-12.782 28.565-28.565v-358.875zM260.313 288.382c-36.686 0-66.435-29.75-66.435-66.453 0-36.704 29.749-66.456 66.435-66.456 36.721 0 66.471 29.75 66.471 66.456-0.002 36.703-29.75 66.453-66.471 66.453z" />
<glyph unicode="&#xe012;" d="M306.713 71.946l-50.724 30.517-50.697-30.517-28.709 51.845-20.312-0.318v-161.873l99.718 90.979 99.742-90.87v161.764l-20.314 0.318zM383.144 321.566l24.356 40.749-41.391 23.064 0.796 47.473-47.311-0.759-23.010 41.507-40.595-24.432-40.57 24.432-23.010-41.507-47.311 0.759 0.771-47.473-41.369-23.064 24.331-40.749-24.331-40.735 41.369-23.065-0.771-47.484 47.311 0.759 23.010-41.504 40.57 24.427 40.595-24.427 23.010 41.504 47.311-0.759-0.796 47.484 41.391 23.065z" />
<glyph unicode="&#xe013;" d="M330.968 248.165l0.036 175.31h25.028c13.733 0.031 25 11.219 25 25.063 0 13.873-11.266 25.062-25.031 25.062h-200.065c-13.765 0-24.998-11.25-24.998-25.062 0.062-13.844 11.206-25.062 24.998-25.062h25.031l0.064-175.31c-55.308 0-100.064-50.097-100.031-125.19h149.967v-128.529l24.999-32.847 25.035 32.846v128.529h149.999c0.030 75.127-44.788 125.216-100.032 125.19z" />
<glyph unicode="&#xe014;" d="M353.238 473.6c-68.223 0-102.325-56.006-102.325-96.759-1.363-48.352 27.3-77.636 76.413-77.636 58.654 0 103.674 47.085 103.674 97.99 0 40.76-25.919 76.405-77.762 76.405zM344.274 199.857c-49.095 0-163.678-50.014-263.274-135.291l20.448-34.38c31.422 21.646 84.562 43.63 96.854 43.63 9.521 0 8.185-12.728 0-44.543l-16.007-67.673h160.438l28.838 112.223c20.459 76.386 13.621 126.034-27.297 126.034z" />
<glyph unicode="&#xe015;" d="M34.9 472.856c-19.273 0-34.9-12.17-34.9-27.181v-484.075h69.83v484.075c0 15.011-15.625 27.181-34.93 27.181zM275.050 427.97c-86.146 0-129.231 32.326-129.231 32.326v-280.078c0 0 43.086-32.325 129.231-32.325 86.171 0 118.489 75.402 236.95 32.325v280.075c-118.461 43.111-150.779-32.323-236.95-32.323z" />
<glyph unicode="&#xe016;" d="M505.422 233.795l-233.549 180.706c-8.771 8.935-22.988 8.935-31.757 0l-233.517-180.706c-8.798-8.933-8.798-23.453 0-32.387l233.518-180.709c8.769-8.935 22.988-8.935 31.757 0l233.549 180.709c8.769 8.934 8.769 23.455-0.001 32.387zM254.494 96.295c-64.519 0-116.821 54.309-116.821 121.291 0 67.009 52.305 121.32 116.821 121.32 64.488 0 116.791-54.311 116.791-121.32-0.002-66.982-52.303-121.291-116.791-121.291zM255.984 217.585l0.030 71.73c-38.897 0-70.403-32.102-70.403-71.73 0-39.603 31.506-71.701 70.403-71.701 38.864 0 70.374 32.1 70.374 71.701 0 9.030-1.661 17.675-4.636 25.653l-65.768-25.653z" />
<glyph unicode="&#xe017;" d="M248.372 150.922c4.212-4.188 11.015-4.188 15.224 0l154.054 153.759c2.338 2.363 1.274 5.969-2.060 5.969l-78.125 0.026v155.517c0 4.096-3.334 7.408-7.404 7.408h-148.11c-4.073 0-7.408-3.312-7.408-7.408v-155.468l-76.924 0.021c-4.535 0-5.925-3.125-2.985-6.062l153.738-153.762zM493.382 77.963h-474.764c-10.282 0-18.618-8.336-18.618-18.618v-79.127c0-10.281 8.336-18.618 18.618-18.618h474.764c10.282 0 18.618 8.337 18.618 18.618v79.127c0 10.282-8.336 18.618-18.618 18.618z" />
<glyph unicode="&#xe018;" d="M79.625 160.418c0 21.979-17.845 39.769-39.781 39.769-22.033 0-39.844-17.79-39.844-39.769 0-21.963 17.811-39.751 39.843-39.751 21.936 0 39.782 17.788 39.782 39.751zM69.656 90.796c-21.938 0-39.781-17.822-39.781-39.83 0-21.899 17.843-39.753 39.781-39.753 22.032 0 39.844 17.854 39.844 39.753 0 22.008-17.814 39.83-39.844 39.83zM439.032 90.796c-21.94 0-39.781-17.822-39.781-39.83 0-21.899 17.841-39.753 39.781-39.753 22 0 39.874 17.854 39.874 39.753-0.002 22.008-17.874 39.83-39.874 39.83zM472.216 200.187c-22 0-39.872-17.79-39.872-39.769 0-21.963 17.872-39.751 39.872-39.751 21.968 0 39.784 17.791 39.784 39.751 0 21.979-17.813 39.769-39.784 39.769zM63.032 230.011c21.998 0 39.843 17.835 39.843 39.83 0 21.917-17.846 39.752-39.843 39.752-21.969 0-39.782-17.836-39.782-39.752 0-21.995 17.812-39.83 39.782-39.83zM439.032 230.011c22 0 39.874 17.835 39.874 39.83 0 21.917-17.874 39.752-39.874 39.752-21.94 0-39.781-17.836-39.781-39.752 0-21.995 17.841-39.83 39.781-39.83zM142.687 394.209c-21.967 0-39.81-17.853-39.81-39.846 0-21.915 17.843-39.75 39.81-39.75 22 0 39.813 17.836 39.813 39.75 0 21.993-17.812 39.846-39.813 39.846zM359.466 394.209c-22.031 0-39.843-17.853-39.843-39.846 0-21.915 17.812-39.75 39.843-39.75 21.939 0 39.785 17.836 39.785 39.75 0 21.993-17.846 39.846-39.785 39.846zM251.062 344.468c22 0 39.812 17.774 39.812 39.753 0 21.991-17.812 39.767-39.812 39.767-21.968 0-39.75-17.775-39.75-39.767 0-21.981 17.78-39.753 39.75-39.753zM251.062 213.486c-29.282 0-53.094-23.804-53.094-53.069 0-29.263 23.812-53.071 53.094-53.071 27.093 0 49.469 20.354 52.72 46.569l69.032 76.094-97.068-22.636c-7.373 3.924-15.749 6.113-24.684 6.113z" />
<glyph unicode="&#xe019;" d="M510.878 194.987l1.122 21.608-0.968 21.643-45.345 11.468-11.387 43.455 33.748 32.406-21.498 37.438-45.047-12.656-31.56 31.811 12.997 45.001-37.279 21.778-32.688-33.56-43.2 11.781-11.233 45.407-21.594 1.033-21.61-0.846-11.485-45.343-43.382-11.436-32.438 33.78-37.422-21.405 12.726-45.127-31.804-31.625-45.063 13.032-21.74-37.188 33.576-32.812-11.806-43.251-45.498-11.125-1-21.625 0.859-21.593 45.311-11.548 11.47-43.328-33.805-32.452 21.502-37.455 45.044 12.702 31.615-31.793-13.053-45.064 37.217-21.78 32.812 33.594 43.187-11.75 11.142-45.437 21.67-1.125 21.547 0.938 11.577 45.341 43.345 11.378 32.436-33.765 37.42 21.528-12.684 45.077 31.763 31.564 45.062-13.032 21.776 37.188-33.56 32.783 11.716 43.219 45.509 11.168zM255.508 110.236c-59.286 0.329-107.114 48.514-106.897 107.831 0.259 59.251 48.5 107.095 107.74 106.923 59.339-0.281 107.197-48.547 107.011-107.752-0.357-59.329-48.575-107.207-107.854-107.002z" />
<glyph unicode="&#xe01a;" d="M256.011 473.6c-141.409 0-256.011-114.629-256.011-255.991v-256.009h256.011c141.364 0 255.989 114.63 255.989 256.009 0 141.362-114.625 255.991-255.989 255.991zM256.011 25.593c-105.884 0-192.016 86.134-192.016 192.016 0 105.866 86.132 191.998 192.016 191.998 105.866 0 192.002-86.132 192.002-191.998 0.001-105.882-86.136-192.016-192.002-192.016z" />
<glyph unicode="&#xe01b;" d="M180.57 367.179l60.993-157.135v-29.18h0.324c1.48-9.618 7.887-12.85 15.578-12.85 7.661 0 14.066 3.231 15.548 12.85h0.32v29.18l60.995 157.135h-0.028c2.573 7.905 4.021 16.365 4.021 25.176-0.001 44.868-36.212 81.245-80.853 81.245-44.676 0-80.888-36.377-80.888-81.246 0-8.813 1.45-17.271 4.024-25.176h-0.034zM486.411 83.614h-460.79c-14.162 0-25.621-11.523-25.621-25.725v-70.562c0-14.236 11.459-25.727 25.621-25.727h460.791c14.131 0 25.588 11.491 25.588 25.728v70.562c0 14.201-11.457 25.724-25.589 25.724z" />
<glyph unicode="&#xe01c;" d="M503.331 214.212l-10.493 10.472c-11.559 11.557-30.334 11.557-41.937 0l-188.247 187.948c11.557 11.539 11.596 30.282 0 41.837l-10.494 10.476c-11.561 11.541-30.299 11.541-41.894 0l-136.24-136.007c-11.559-11.554-11.559-30.295 0-41.853l10.49-10.453c11.561-11.558 30.334-11.558 41.931 0l188.257-187.931c-11.593-11.557-11.593-30.303 0-41.834l10.455-10.473c11.595-11.543 30.331-11.543 41.929 0l136.241 135.98c11.562 11.577 11.562 30.297 0.002 41.838zM0 19.193l57.751-57.593 131.999 131.645-57.75 57.59z" />
<glyph unicode="&#xe01d;" d="M366.603 241.657l-68.739 20.206c-5.241 1.67-9.803 2.72-7.839 9.705l53.736 199.862c0.57 2.016-1.924 3.128-3.453 1.081l-199.138-265.483c-2.956-4.077-2.278-8.63 4.385-10.923l68.742-20.22c6.058-1.921 10.087-3.145 8.764-7.628l-54.913-204.721c-0.5-1.968 2.316-2.937 3.989-0.449l199.247 270.058c2.49 3.56 0.778 6.718-4.781 8.512z" />
<glyph unicode="&#xe01e;" d="M0 165.59h100.217c23.295-97.11 110.183-169.49 213.758-169.49h51.639v80.52h146.386v103.912h-146.384v74.131h146.384v103.914h-146.384v80.523h-51.64c-103.574 0-190.461-72.379-213.757-169.489h-100.219v-104.021z" />
<glyph unicode="&#xe01f;" d="M416.075 431.014h-87.426v16.364c0 14.482-11.825 26.222-26.43 26.222h-92.439c-14.604 0-26.396-11.74-26.396-26.222v-16.364h-87.455c-14.608 0-26.429-11.723-26.429-26.204v-46.21h373v46.21c0 14.481-11.823 26.204-26.425 26.204zM71.171-12.168c0-14.481 11.792-26.232 26.397-26.232h316.863c14.606 0 26.43 11.753 26.43 26.232v300.775h-369.69v-300.775zM300.549 218.231l67.674 0.389v-187.028h-67.674v186.639zM143.771 218.231h67.682v-186.64h-67.682v186.64z" />
<glyph unicode="&#xe020;" d="M0 473.6l165.714-405.048c8.532 128.971 108.218 232.923 235.254 248.144l-400.968 156.904zM414 212.037c-5.534-76.813-65.75-138.438-141.941-146.111l239.941-104.326-98 250.437z" />
<glyph unicode="&#xe021;" d="M352.218 327.382c-4.154 4.157-10.936 4.157-15.091 0l-69.063-69.061c-3.877 1.157-7.875 2.185-12.094 2.185-15.936 0-29.686-10.906-36.999-21.576h-58.971c-5.874 0-10.657-5.313-10.657-11.17v-20.33c0-5.861 4.783-11.17 10.657-11.17h58.968c7.312-10.657 21.062-21.577 36.999-21.577 23.595 0 42.69 19.234 42.69 42.797 0 3.498-0.534 6.934-1.346 10.218l69.721 69.751c4.154 4.157 4.154 10.955 0 15.092l-14.814 14.841zM255.967 473.6c-141.123 0-255.967-114.844-255.967-256 0-141.171 114.844-256 255.967-256 141.156 0 256.033 114.829 256.033 256 0 141.156-114.877 256-256.033 256zM255.967 25.6c-106.030 0-192 85.968-192 192 0 106.031 85.967 192 192 192 106.062 0 192.001-85.969 192.001-192 0-106.032-85.936-192-192.001-192z" />
<glyph unicode="&#xe022;" d="M256 473.553l-162.5 0.047v-512l162.5 139.519 162.5-139.519v512l-162.5-0.047z" />
<glyph unicode="&#xe023;" d="M502.772 151.537l-138.274-19.591c-5.846-0.846-7.221-4.904-3.030-9.096l36.655-35.909c-25.909-27.711-55.128-47.466-98.094-56.187v283.692c21.503 14.782 42.53 42.279 42.53 73.811 0.001 47.064-38.84 85.343-86.245 85.343-47.437 0-85.592-38.282-85.592-85.343 0-31.529 21.909-59.029 43.343-73.811v-283.654c-42.966 8.684-73.12 28.531-99.12 56.377l35.875 35.841c4.156 4.154 2.718 8.188-3.156 9.027l-138.308 19.626c-5.874 0.846-10.093-3.25-9.249-9.063l19.811-137.248c0.844-5.813 4.936-7.188 9.092-3.031l39.685 39.434c47.061-49.464 113.657-80.155 187.367-80.155 73.374 0 139.651 31.282 186.681 80.593l40.279-39.963c4.157-4.157 8.25-2.816 9.093 3.024l19.782 137.25c0.812 5.783-3.282 9.878-9.125 9.033zM256.096 345.538c-23.717 0-43.029 19.156-43.029 42.717 0 23.531 19.312 42.657 43.029 42.657 23.687 0 42.968-19.126 42.968-42.657-0.001-23.559-19.282-42.717-42.968-42.717z" />
<glyph unicode="&#xe024;" d="M440.034 442.024l-53.125-136.979h78.782l46.309 136.979zM165.146 53.045h-89.139c0 52.92-75.998 52.92-75.998 4.591 0-39.784 0-21.253 0-63.562 0-42.279 71.843-44.307 71.843 0h167.908v223.91h-74.615v-164.939zM0.009 442.024c0-31.576 0-135.608 0-135.608s-1.389-29.564 30.406-29.564c25.242 0 199.788 0 270.683 0l77.217 196.748h-345.824c0 0-32.482 0-32.482-31.576zM202.049 408.443c19.308 0 34.96-15.627 34.96-34.909 0-19.28-15.652-34.909-34.96-34.909-19.309 0-34.96 15.629-34.96 34.909-0.001 19.282 15.651 34.909 34.96 34.909z" />
<glyph unicode="&#xe025;" d="M0 217.793v-244.548c0-6.432 5.208-11.645 11.636-11.645h488.727c6.428 0 11.637 5.213 11.637 11.646v244.547h-512zM442.182 473.6h-372.364v-186.322h372.363v186.322zM197.818 345.357h-69.818v69.87h69.818v-69.87zM384 345.357h-69.818v69.87h69.818v-69.87z" />
<glyph unicode="&#xe026;" d="M500.363 473.309l-430.545 0.291c0 0 0-249.337 0-255.759l-69.818-53.883v-190.728c0-6.427 5.21-11.63 11.636-11.63h488.727c6.428 0 11.637 5.203 11.637 11.63v488.45c0 6.42-5.209 11.629-11.637 11.629zM186.182 217.454h-69.818v186.077h69.818v-186.077zM325.818 217.454h-69.818v186.077h69.818v-186.077zM465.454 217.454h-69.817v186.077h69.817v-186.077z" />
<glyph unicode="&#xe027;" d="M493.382 380.225h-50.036v78.435c0 8.252-6.668 14.94-14.896 14.94h-63.3c-8.228 0-14.896-6.688-14.896-14.941v-78.435h-46.546v78.436c0.001 8.252-6.667 14.94-14.895 14.94h-63.301c-8.227 0-14.895-6.688-14.895-14.941v-78.435h-46.545v78.436c0.001 8.252-6.668 14.94-14.894 14.94h-63.302c-8.226 0-14.894-6.688-14.894-14.94v-78.435h-52.364c-10.282 0-18.618-8.359-18.618-18.674v-289.462c0-10.313 8.336-18.673 18.618-18.673h52.364v-76.88c0-8.25 6.668-14.937 14.894-14.937h63.302c8.226 0 14.895 6.687 14.895 14.937v76.88h46.545v-76.88c0-8.25 6.668-14.937 14.895-14.937h63.301c8.228 0 14.896 6.687 14.896 14.937v76.88h46.546v-76.88c0-8.25 6.668-14.937 14.896-14.937h63.3c8.228 0 14.896 6.687 14.896 14.937v76.88h50.036c10.282 0 18.618 8.361 18.618 18.673v289.462c-0.002 10.315-8.338 18.674-18.62 18.674zM81.455 279.847c0 10.317 8.336 18.674 18.618 18.674h311.855c10.281 0 18.618-8.359 18.618-18.674v-126.055c0-10.316-8.337-18.675-18.618-18.675h-311.855c-10.282 0-18.618 8.363-18.618 18.675v126.055z" />
<glyph unicode="&#xe028;" d="M256 299.054c-44.913 0-81.454-36.541-81.454-81.454s36.541-81.454 81.454-81.454c44.914 0 81.454 36.541 81.454 81.454s-36.54 81.454-81.454 81.454zM488.728 473.6h-314.129c0-0.025 0.007-0.049 0.007-0.073v-45.742c0-6.646-5.39-12.036-12.036-12.036h-45.742c-6.647 0-12.038 5.39-12.038 12.036v45.742c0 0.026 0.007 0.050 0.007 0.073h-81.524c-12.854 0-23.273-10.419-23.273-23.272v-465.455c0-12.848 10.419-23.273 23.273-23.273h465.455c12.851 0 23.272 10.425 23.272 23.272v465.456c0 12.851-10.421 23.272-23.272 23.272zM256 65.939c-83.411 0-151.273 67.861-151.273 151.272 0 83.412 67.862 151.273 151.273 151.273s151.272-67.861 151.272-151.273c0-83.411-67.861-151.272-151.272-151.272z" />
<glyph unicode="&#xe029;" d="M387.562 128.79c-9.904 0-43.157-39.868-52.123-44.309-9.002-4.438-65.002-2.844-127.405 59.565-62.439 62.373-83.752 134.206-83.752 145.505 0 11.271 52.097 46.106 53.502 54.309 1.437 8.175-68.626 129.74-80.001 129.74-11.376-0.002-97.783-105-97.783-113.75s7.906-121.312 150.438-263.816c142.53-142.505 236.405-134.3 247.812-134.363 11.404-0.033 113.75 75.662 113.75 85.304 0 9.675-114.532 81.815-124.438 81.815z" />
<glyph unicode="&#xe02a;" d="M0 101.858c0-74.369 119.838-140.258 255.565-140.258 135.726 0 255.275 68.989 255.275 140.258v116.324h-510.55l-0.29-116.324zM224.236 473.6h-153.165c-38.449 0-69.621-31.237-69.621-69.766v-115.899h222.786v185.665zM177.822 334.446h-129.958v69.388c0 12.823 10.41 23.255 23.207 23.255h106.751v-92.643zM442.38 473.6h-148.524v-185.665h218.144v115.899c0 38.529-31.171 69.766-69.62 69.766z" />
<glyph unicode="&#xe02b;" d="M257.311 473.6c-89.031 0-161.193-73.196-161.193-163.488v-92.412h322.382v92.412c0 90.281-72.177 163.488-161.189 163.488zM93.5 77.918h57.569v-116.318h69.082v116.318h69.078v-116.318h69.084v116.318h57.568v69.788h-322.381z" />
<glyph unicode="&#xe02c;" d="M493.382 380.099l-474.764 0.001c-10.282 0-18.618-8.315-18.618-18.572v-287.856c0-10.257 8.336-18.572 18.618-18.572h474.764c10.281 0 18.618 8.315 18.618 18.572v287.856c0 10.257-8.337 18.571-18.618 18.571zM348.51 123.97h-277.917v69.643h277.917v-69.643z" />
<glyph unicode="&#xe02d;" d="M33.937 217.6h444.030c27.18 0 40.118 21.785 29.642 49.712l-64.576 171.379c-6.402 20.059-15.765 34.909-35.221 34.909h-303.717c-19.451 0-29.1-15.241-35.223-34.909l-64.886-171.379c-8.901-22.653 0.511-49.712 29.951-49.712zM493.723 112.836h-475.445c-10.060 0-18.278-8.459-18.278-18.904v-113.423c0-10.466 8.218-18.909 18.278-18.909h475.444c10.12 0 18.277 8.443 18.277 18.909v113.423c0.001 10.45-8.156 18.904-18.276 18.904zM419.396 2.309c-19.373 0-35.079 15.632-35.079 34.909s15.706 34.909 35.079 34.909c19.37 0 35.077-15.632 35.077-34.909s-15.707-34.909-35.077-34.909z" />
<glyph unicode="&#xe02e;" d="M353.745 333.963h-195.49c-10.282 0-18.618-8.336-18.618-18.618v-144.291l69.818-69.817h144.29c10.282 0 18.618 8.336 18.618 18.618v195.49c0 10.282-8.336 18.618-18.618 18.618zM512 392.145v62.837c0 10.282-8.336 18.618-18.618 18.618h-474.764c-10.282 0-18.618-8.336-18.618-18.618v-62.836h34.909v-69.818h-34.909v-69.818h34.909v-69.818h-34.909v-69.818h34.909v-69.818h-34.909v-62.836c0-10.284 8.336-18.62 18.618-18.62h474.764c10.282 0 18.618 8.336 18.618 18.618v62.836h-34.909v69.818h34.909v69.818h-34.909v69.818h34.909v69.818h-34.909v69.819h34.909zM442.182 50.037c0-10.282-8.336-18.618-18.618-18.618h-335.127c-10.282 0-18.618 8.336-18.618 18.618v335.126c0 10.282 8.336 18.618 18.618 18.618h335.127c10.282 0 18.618-8.336 18.618-18.618v-335.126z" />
<glyph unicode="&#xe02f;" d="M256.002 473.6c-104.746 0-190.002-85.107-190.002-189.688 0-59.046 36.957-112.812 69.572-160.216 19.806-28.817 40.3-58.601 40.3-75.125v-23.723h23.742v-63.248h118.743v63.248h23.739v23.723c0 16.872 19.462 46.716 38.212 75.623 30.831 47.327 65.692 101.014 65.692 159.718 0 104.581-85.221 189.688-189.998 189.688zM340.473 150.038c-18.4-28.347-34.987-53.779-42.108-77.752h-78.913c-7.528 24.159-25.118 49.782-44.703 78.267-28.709 41.706-61.229 89.017-61.229 133.36 0 78.438 63.947 142.25 142.484 142.25 78.604 0 142.517-63.812 142.517-142.25-0.002-44.69-30.803-92.063-58.048-133.875z" />
<glyph unicode="&#xe030;" d="M477.091 392.6h-442.182c-19.279 0-34.909-15.667-34.909-34.998v-280.005c0-19.326 15.63-34.997 34.909-34.997h442.182c19.28 0 34.909 15.671 34.909 34.997v280.005c0 19.331-15.629 34.998-34.909 34.998zM216.604 105.768v223.659l111.539-111.827-111.539-111.832z" />
<glyph unicode="&#xe031;" d="M431.216 442.6c-65.093 0-115.997-42.304-138.029-121.949 23.998 11.448 67.562 17.398 70.969-22.407 3.436-39.837-56.782-142.848-83.218-142.848-26.376 0-46.003 116.482-52.877 169.715-6.814 53.295-19.061 111.994-68.97 111.994-49.966 0-114.031-78.654-159.091-114.491l23.501-32.302c0 0 33.248 26.319 45.029 24.355 30.345-7.945 56.253-131.904 69.535-179.167 13.186-47.315 29.311-142.9 94.437-142.9 105.248 0.003 279.498 262.338 279.498 347.962 0 56.248-15.687 102.038-80.784 102.038z" />
<glyph unicode="&#xe032;" d="M457.563 239.175c43.469 3.838 50.627 29.571 50.627 29.571s-33.408-14.521-59.097 0.657c-10.905 48.029-50.469 99.247-107.121 93.815 0 0 9.623 39.846-20.067 26.733-29.653-13.118-57.31-74.419-74.032-121.671-53.996 56.807-126.562 69.174-169.561 91.111-9.529-38.164 38.222-59.134 40.125-64.861 1.938-5.747-24.847 1.312-26.75-6.576-2.967-20.050 22.687-39.346 54.002-50.248-16.251-1.875-36.812-2.359-31.064-15.708 5.751-13.378 13.375-28.622 59.219-30.527-31.158-5.131-28.282-45.563 16.813-40.083-95.499-89.688-190.657-4.765-190.657-4.765 72.564-99.246 177.689-104.023 210.157-104.023 32.469 0 123.688 13.834 187.249 77.291 36.469 36.425 48.939 69.658 53.033 91.408 16.031-0.281 45.688 2.391 61.561 23.596-30.559-3.353-60.151 2.371-54.437 4.28z" />
<glyph unicode="&#xe033;" d="M474.625 182.909c1.688 11.19 2.816 22.504 2.816 34.1 0 126.029-102.162 228.216-228.223 228.216-11.781 0-23.28-1.157-34.594-2.874-22.747 19.436-52.217 31.249-84.467 31.249-71.845 0-130.157-58.282-130.157-130.157 0-29.343 9.812-56.341 26.219-78.095-3.344-15.561-5.22-31.716-5.22-48.34 0-126.062 102.158-228.282 228.219-228.282 16.189 0 32 1.747 47.22 4.968 22.875-19.937 52.694-32.094 85.408-32.094 71.872-0.002 130.154 58.28 130.154 130.155 0 35.562-14.248 67.687-37.375 91.154zM355.687 117.596c-8.969-12.779-22.154-22.777-39.437-29.997-17.346-7.287-37.846-10.878-61.56-10.878-28.5 0-52.001 4.939-70.533 14.844-13.093 7.127-23.717 16.598-31.936 28.5-8.188 11.843-12.314 23.407-12.314 34.625 0 6.562 2.468 12.094 7.373 16.723 4.941 4.655 11.22 6.969 18.814 6.969 6.156 0 11.403-1.787 15.656-5.437 4.249-3.596 7.905-8.971 10.908-16.063 3.687-8.469 7.653-15.5 11.906-21.155 4.25-5.688 10.279-10.345 17.997-14.034 7.752-3.688 17.938-5.529 30.499-5.529 17.346 0 31.374 3.688 42.187 11.123 10.841 7.404 16.282 16.654 16.282 27.781 0 8.777-2.909 15.941-8.779 21.407-5.816 5.498-13.348 9.687-22.625 12.596-9.255 2.87-21.568 5.966-37.096 9.216-20.719 4.471-38.062 9.687-52.033 15.625-13.968 6.002-25.125 14.124-33.249 24.437-8.249 10.347-12.344 23.156-12.344 38.439 0 14.623 4.344 27.562 12.998 38.903 8.656 11.315 21.157 20.066 37.625 26.126 16.407 6.096 35.656 9.125 57.844 9.125 17.687 0 33.005-1.999 45.937-6.030 12.938-4.032 23.654-9.407 32.187-16.095 8.5-6.719 14.718-13.75 18.69-21.092 3.938-7.345 5.871-14.532 5.871-21.5 0-6.407-2.439-12.19-7.312-17.312-4.937-5.097-11.096-7.689-18.473-7.689-6.655 0-11.748 1.562-15.216 4.624-3.5 3.065-7.248 8.097-11.312 15.094-5.25 10-11.532 17.843-18.905 23.439-7.377 5.594-19.19 8.403-35.44 8.403-15.065 0-27.25-3.031-36.468-9.123-9.282-6.062-13.875-13.408-13.875-21.97 0-5.311 1.562-9.908 4.722-13.75 3.126-3.879 7.466-7.157 12.996-9.94 5.471-2.78 11.067-4.938 16.721-6.562 5.625-1.532 14.939-3.843 27.939-6.842 16.221-3.499 30.938-7.378 44.156-11.594 13.187-4.218 24.405-9.342 33.628-15.345 9.309-6.062 16.531-13.69 21.687-22.904 5.184-9.22 7.777-20.531 7.777-33.94 0.007-15.967-4.493-30.433-13.493-43.218z" />
<glyph unicode="&#xe034;" d="M267.968 473.6c-139.233 0-209.468-100.184-209.468-183.733 0-50.594 19.074-95.578 60.007-112.326 6.755-2.644 12.736-0.124 14.689 7.34 1.363 5.158 4.554 18.188 5.981 23.612 1.954 7.392 1.208 9.999-4.213 16.374-11.808 13.969-19.339 32.047-19.339 57.654 0 74.359 55.426 140.859 144.286 140.859 78.601 0 121.926-48.219 121.926-112.717 0-84.767-37.374-156.264-92.859-156.264-30.704 0-53.685 25.405-46.311 56.608 8.814 37.187 25.862 77.403 25.862 104.327 0 24.062-12.893 44.205-39.497 44.205-31.363 0-56.492-32.594-56.492-76.171 0-27.734 9.329-46.531 9.329-46.531s-32.044-136.389-37.699-160.248c-11.219-47.563-1.674-105.86-0.867-111.732 0.463-3.518 4.956-4.343 6.938-1.704 2.931 3.782 40.241 50.045 52.913 96.25 3.627 13.029 20.605 80.855 20.605 80.855 10.214-19.501 39.961-36.688 71.598-36.688 94.208 0 158.142 86.159 158.142 201.557 0.001 87.209-73.646 168.473-185.531 168.473z" />
<glyph unicode="&#xe035;" d="M0 345.693h96.062v-383.684h-96.062v383.684zM384.282 345.693c-82.255-1.375-122.719-61.249-128.096-63.938v63.938h-96.061v-383.684h96.061v223.809c0 8.219 20.286 73.941 96.063 63.969 40.723-2.687 62.691-56.437 64.062-63.969v-224.218h95.689v265.596c-3.377 38.344-22.559 117.122-127.718 118.497zM48.033 473.6c-26.501 0-48.033-21.469-48.033-47.967 0-26.531 21.532-47.968 48.033-47.968 26.53 0 48.032 21.438 48.032 47.968-0.003 26.498-21.502 47.967-48.032 47.967z" />
<glyph unicode="&#xe036;" d="M449.382 409.311v63.055h-32.548v-63.055h-63.741v-32.655h63.741v-63.127h32.548v63.127h62.618v32.655zM300.072 457.455c17.455 9.818 25.089 16.145 25.089 16.145h-166.471c-33.348 0-125.964-37.892-125.964-126.328s96.069-107.418 130.907-105.963c-19.563-23.855-2.797-45.673 7.635-56.8 10.475-11.198 8.33-14.759-4.142-14.759-12.544 0-167.126-1.675-167.126-112.296 0-110.614 205.421-118.616 272.945-59.050 67.493 59.637 52.873 141.887 0.654 179.124-52.22 37.093-71.673 54.691-38.256 84.145 33.381 29.454 59.888 53.309 59.888 108.075 0 54.764-45.271 82.763-45.271 82.763s32.731-4.875 50.112 4.944zM274.291 63.058c0-47.709-40.547-70.837-109.343-70.837-68.878 0-105.82 34.328-105.82 85.601 0 51.273 50.183 76.506 144.143 76.506 25.493-19.632 71.020-43.488 71.020-91.27zM174.767 263.129c-82.913 0-120.511 193.601-22.985 193.601 75.853 2.834 132.946-193.601 22.985-193.601z" />
<glyph unicode="&#xe037;" d="M128 158.264h85.218v-128.249h-85.218v128.249zM297.626 158.264h86.374v-129.991h-86.374v129.991zM480.001 289.42v125.68l-127.999-64.21h-192.002l-128 64.21-0.126-125.68c-20.624-27.030-31.874-62.371-31.874-99.045v-32.111c0-59.189 32.312-110.331 79.812-138.164-9.719 11.254-15.812 25.767-15.812 41.855v64.21c0 35.47 28.656 64.212 64 64.212h256c35.341 0 64.001-28.742 64.001-64.212v-64.21c0-16.089-6.094-30.602-15.814-41.855 47.501 27.833 79.813 78.976 79.813 138.164v32.111c0 39.084-8.876 71.214-31.999 99.045z" />
<glyph unicode="&#xe038;" d="M336.28 371.196h36.22v102.404c0 0-25.881 0-103.526 0-77.691 0-77.691-76.797-77.691-102.404 0-25.596 0-76.798 0-76.798h-51.783v-76.798h51.782v-256h103.569v256h77.649v76.798h-77.648l0.12 42.829c0 23.045 7.813 33.969 41.308 33.969z" />
<glyph unicode="&#xe039;" d="M256 473.6c-141.375-0.031-256-114.625-256-256s114.625-256 256-256c141.407 0 256 114.625 256 256s-114.593 255.969-256 256zM412.843 340.881c24.971-31.689 40.628-71.001 42.599-113.907-28.907 6.126-56.219 9.158-81.657 9.158h-0.188c-20.466 0-39.716-1.877-57.813-5.094-4.469 10.815-8.873 21.188-13.405 31.127 40.371 17.685 79.121 42.873 110.464 78.716zM256 417.317c47.125 0 90.341-16.467 124.563-43.874-26.187-31.343-60.781-54.032-98.093-70.096-26.248 50.752-51.595 87.065-68.938 109.253 13.717 2.969 27.874 4.717 42.468 4.717zM167.748 396.54c13.877-16.375 41.658-52.408 71.284-108.689-60.281-17.938-120.969-22.125-157.719-22.125-1.063 0-2.127 0-3.125 0-6.158 0-11.502 0.125-15.971 0.249 14.345 57.313 53.598 104.843 105.531 130.565zM56.283 217.6c0 0.935 0.029 1.876 0.093 2.874 5.688-0.221 13-0.407 21.814-0.407 40.184 0.282 110.312 3.626 181.312 26.062 3.875-8.468 7.689-17.282 11.503-26.47-47.44-15.843-84.786-41.125-112.439-66.309-26.626-24.25-44.532-48.223-55.062-64.221-29.441 34.783-47.221 79.473-47.221 128.471zM256 17.882c-44.467 0-85.437 14.716-118.687 39.409 7.124 11.591 22.249 33.872 46.373 56.968 24.782 23.782 59.034 48.313 103.781 62.846 15.219-42.596 28.941-91.284 39.469-146.128-22.123-8.44-45.968-13.095-70.936-13.095zM369.032 53.35c-10.128 49.562-22.878 94.25-36.846 134.188 12.968 1.844 26.596 2.904 40.971 2.904h0.565c23.812 0 49.969-2.938 78.373-9.404-9.813-52.811-40.407-98.284-83.063-127.688z" />
<glyph unicode="&#xe03a;" d="M475.873 280.879h-19.437c0 0-3.5 0-4.063 0-31.937 0-37.437 28.377-37.437 28.377l0.75-0.533c-3.752 91.565-73.345 164.251-168.439 164.877v-0.126h-75.997c-94.81-0.622-171.25-76.123-171.25-170.97v-170.313c0-94.784 76.062-169.973 171.188-170.532v-0.059l171.153 0.12c85.596 1.752 169.659 75.689 169.659 170.474v115.031c0 18.155-17.813 33.654-36.127 33.654zM161.623 346.29c0.249 0 0.062 0 0.062 0h95.064c18.996-0.438 31.124-17.753 31.124-34.472 0-16.749-12.128-30.939-31.124-30.939h-95.064c0 0-0.938 0-1.188 0-17.063 0-34.376 14.439-34.376 31.44 0.003 16.969 18.505 33.971 35.502 33.971zM337.309 88.287h-175.621v1c0 0-0.938 0-1.188 0-17.063 0-34.125 16.377-34.125 33.404 0 17.005 17.001 30.501 34.065 30.501 0.217 0 0.779 0 0.873 0h177.496c19.064 0 29.128-15.189 29.128-31.969 0-16.75-11.594-32.936-30.628-32.936z" />
<glyph unicode="&#xe03b;" d="M205.438 232.984c10.342 5.315 18.125 11.24 23.499 17.717 9.502 11.604 14.312 26.959 14.312 45.988 0 18.516-4.752 34.403-14.188 47.604-15.593 21.672-42.312 32.777-79.906 33.307h-149.155v-312.115h139.062c15.689 0 30.188 1.409 43.595 4.142 13.345 2.893 25.062 8.036 34.845 15.636 8.75 6.742 16.035 14.908 21.814 24.68 9.22 14.648 13.748 31.208 13.748 49.708 0 17.955-4 33.141-11.999 45.791-8.035 12.578-19.876 21.691-35.627 27.542zM61.594 323.321h67.126c14.748 0 26.969-1.562 36.438-4.815 11.031-4.708 16.594-14.215 16.594-28.821 0-13.072-4.217-22.208-12.533-27.411-8.405-5.146-19.281-7.71-32.655-7.71h-74.97v68.757zM167.69 125.175c-7.44-3.63-17.876-5.535-31.251-5.535h-74.845v83.146h75.938c13.218-0.062 23.5-1.813 30.78-5.188 13.158-6.055 19.686-17.174 19.686-33.469 0.003-19.157-6.747-32.169-20.308-38.954zM510.034 209.697c-2.849 18.092-8.904 33.965-18.22 47.772-10.373 15.562-23.559 26.913-39.501 34.154-15.844 7.131-33.75 10.852-53.591 10.852-33.438 0-60.594-10.728-81.502-32.027-21.005-21.35-31.47-52.060-31.47-92.011 0-42.709 11.562-73.451 34.751-92.422 23.249-18.938 50.033-28.416 80.343-28.415 36.81 0 65.44 11.275 85.874 33.623 13.096 14.182 20.533 28.178 22.095 41.784h-60.876c-3.592-6.853-7.656-12.053-12.345-15.871-8.436-7.066-19.5-10.586-33.093-10.586-12.78 0-23.747 2.862-32.782 8.643-15.029 9.338-22.998 25.543-23.971 48.781h166.187c0.29 19.952-0.367 35.155-1.899 45.723zM347.283 203.677c2.159 15.089 7.409 26.96 15.875 35.811 8.372 8.694 20.283 13.149 35.596 13.149 14.060 0 25.844-4.175 35.343-12.445 9.532-8.24 14.812-20.472 15.907-36.515h-102.721zM320.002 345.607h160v-32.011h-160v32.011z" />
<glyph unicode="&#xe03c;" d="M512 379.564l-94.039 94.036-161.961-161.964-161.964 161.964-94.036-94.036 161.964-161.964-161.964-161.964 94.036-94.036 161.964 161.964 161.961-161.964 94.039 94.036-161.964 161.964z" />
<glyph unicode="&#xe03d;" d="M256 265.442l105.375-210.751h-210.751l105.376 210.751zM256 473.6l-256-512h512l-256 512z" />
<glyph unicode="&#xe03e;" d="M181.407 345.522l148.897-0.207 74.106-127.892-74.060-127.819h-148.7l-74.117 127.912 73.874 128.006zM127.691 438.685l-127.691-221.262 128-220.908h256l128 220.908-128 220.906-256.309 0.356z" />
<glyph unicode="&#xe03f;" d="M315.171 473.6l-77.094-364.421-72.31 153.984h-165.767v-92.672h106.524l98.094-208.891h98.56l88.365 419.331h120.457v92.669z" />
<glyph unicode="&#xe040;" d="M256 473.6c-95.268 0-172.5-78.412-172.5-175.141h92c0 45.067 36.112 81.734 80.5 81.734s80.5-36.667 80.5-81.734c0-45.067-36.112-81.734-80.5-81.734l-48.682 0.693v-94.101h48.682c95.269 0 172.5 78.414 172.5 175.141 0 96.73-77.231 175.142-172.5 175.142zM210 55.009h92v-93.409h-92v93.409z" />
<glyph unicode="&#xe041;" d="M512 160.002v115.194h-198.402v198.404h-115.196v-198.402h-198.402v-115.189l198.404-0.007v-198.402h115.194v198.402z" />
<glyph unicode="&#xe042;" d="M0 287.6h512v-140h-512v140z" />
<glyph unicode="&#xe043;" d="M279.904 415.583l58.034-58.018-90.98-90.934c-24.345 14.41-52.48 23.215-82.836 23.215-90.647 0-164.122-73.489-164.122-164.123-0.002-90.635 73.472-164.123 164.12-164.123s164.089 73.488 164.089 164.123c0 30.411-8.813 58.511-23.239 82.891l90.967 90.93 58.036-58.019 58.027 232.075-232.096-58.017zM164.104 43.663c-45.306 0-82.044 36.691-82.044 82.063 0 45.348 36.738 82.062 82.044 82.062 45.324 0 82.060-36.711 82.060-82.062 0-45.371-36.739-82.063-82.060-82.063z" />
<glyph unicode="&#xe044;" d="M295.37 164.847c67.831 17.55 118.13 78.456 118.13 151.597 0 86.777-70.492 157.156-157.509 157.156-86.964 0-157.491-70.379-157.491-157.156 0-73.14 50.332-134.047 118.125-151.597v-62.397h-78.745v-78.579h78.745v-62.271h78.745v62.272h78.746v78.582h-78.746v62.393zM255.991 237.866c-43.482 0-78.727 35.154-78.727 78.579 0 43.444 35.245 78.578 78.727 78.578 43.499 0 78.764-35.137 78.764-78.578 0-43.426-35.266-78.579-78.764-78.579z" />
<glyph unicode="&#xe045;" d="M186 101.397h140v-139.797h-140v139.797zM186 473.6v-301.142h140v231.244z" />
<glyph unicode="&#xe046;" d="M256 473.6c-141.384 0-256-114.616-256-256s114.616-256 256-256c141.384 0 256 114.616 256 256 0 141.384-114.616 256-256 256zM69.818 217.6c0 38.742 11.907 74.75 32.235 104.579l258.524-258.524c-29.829-20.33-65.836-32.236-104.577-32.236-102.66-0.001-186.182 83.522-186.182 186.181zM409.947 113.018l-258.526 258.529c29.829 20.328 65.837 32.235 104.579 32.235 102.661 0 186.182-83.521 186.182-186.182 0-38.741-11.907-74.748-32.235-104.582z" />
<glyph unicode="&#xe047;" d="M429.724 415.1l-230.989-230.665-116.457 116.293-82.278-82.163 198.735-198.458 313.265 312.833z" />
<glyph unicode="&#xe048;" d="M253.686 322.362l-253.686 139.601v-86.402l158.75-90.046-158.75-85.242v-86.306l253.686 134.758zM220.376 51.932h291.624v-78.695h-291.624v78.695z" />
<glyph unicode="&#xe049;" d="M427.445 175.46c1.181 8.235 1.837 16.629 1.837 25.19 0 7.358-0.533 14.608-1.405 21.739l45.857 28.865c1.837 3.221 0.684 7.314-2.488 9.16l-50.207-6.316c-1.836 5.689-3.923 11.285-6.287 16.723l73.416 70.702c1.148 3.502-0.778 7.3-4.294 8.439l-97.865-33.568c-6.718 7.72-14.059 14.845-22.026 21.301l29.928 61.748c-0.156 3.711-3.267 6.585-6.968 6.438l-56.929-46.54c-19.193 9.297-40.374 15.127-62.68 16.813l-38.605 95.888c-2.829 2.376-7.028 1.992-9.393-0.868l-5.007-99.052c-3.705-0.875-7.343-1.812-10.948-2.909l-17.67 25.009c-3.327 1.639-7.341 0.282-8.958-3.049l5.506-29.913c-19.068-8.609-36.301-20.519-51.016-35.053l-98.454 41.477c-3.671-0.359-6.378-3.624-6.003-7.33l71.547-78.951c-0.903-1.766-1.807-3.516-2.648-5.314l-68.715-0.795c-3.237-1.783-4.419-5.875-2.644-9.126l58.824-26.632c-2.798-12.501-4.356-25.52-4.356-38.881 0-22.411 4.201-43.791 11.821-63.512l-66.784-64.298c-1.119-3.516 0.809-7.298 4.292-8.444l86.447 29.666c8.149-10.738 17.449-20.502 27.777-29.102l-24.234-50.042c0.158-3.722 3.238-6.594 6.937-6.438l45.605 37.258c4.167-2.264 8.489-4.343 12.846-6.281l-3.639-30.195c1.337-3.438 5.224-5.127 8.65-3.8l16.204 26.228c15.49-4.549 31.855-7.049 48.809-7.114l24.727-61.417c2.834-2.379 7.034-2 9.396 0.856l3.265 64.498c8.371 1.8 16.521 4.19 24.39 7.158l11.009-15.532c3.3-1.644 7.312-0.282 8.929 3.029l-3.608 19.611c21.124 10.491 39.818 25.154 55.060 42.891l92.545-38.995c3.668 0.356 6.346 3.627 6.006 7.316l-70.082 77.341c0.96 2.299 1.861 4.61 2.764 6.954l67.126 0.778c3.238 1.782 4.392 5.88 2.615 9.133l-60.222 27.258z" />
<glyph unicode="&#xe04a;" d="M452.741 473.6l-51.118-51.622c26.93-25.893 43.97-62.201 43.97-102.611 0-40.408-17.004-76.751-43.97-102.613l46.021-47.218c35.669 34.689 64.356 96.064 64.356 149.834 0 53.834-23.593 119.542-59.259 154.23zM110.373 426.377l-46.024 47.223c-35.633-34.688-64.349-96.065-64.349-149.834 0-53.835 23.59-119.541 59.252-154.229l51.12 51.585c-26.933 25.925-43.974 62.235-43.974 102.645 0.001 40.409 17.009 76.75 43.975 102.61zM255.882 434.181c-61.636 0-111.598-50.429-111.598-112.598 0-54.1 37.781-99.273 88.141-110.117l-21.993-249.866h90.9l-22.027 249.866c50.393 10.846 88.177 56.017 88.177 110.117-0.003 62.17-49.96 112.598-111.6 112.598z" />
<glyph unicode="&#xe04b;" d="M255.998 473.6c-147.991 0-232.498-64-232.498-64v-85.312c10.074-301.434 232.498-362.688 232.498-362.688s222.396 61.254 232.502 362.687v85.313c0 0-84.54 64-232.502 64zM255.998 29.879v209.064h-157.944c-5.917 25.875-9.979 54.345-11.16 86.422v47.641c29.946 14.812 84.572 36.593 126.822 36.593 2.076 0 40.173 0 42.282 0v-170.655l155.218 0.315 2.764-0.315c-31.44-137.903-120.040-192.032-157.982-209.065z" />
<glyph unicode="&#xe04c;" d="M349.091 473.6h-186.182v-93.091h-162.909v-418.909h81.455v139.637h69.818v-139.637h69.818v139.637h69.818v-139.637h69.819v139.637h69.818v-139.637h81.454v418.909h-162.909z" />
<glyph unicode="&#xe04d;" d="M383.313 473.6l-46.468-38.844c67.37-55.187 109.399-132.064 109.399-217.093 0-85.124-42.029-161.939-109.399-217.16l46.468-38.903c79.259 65.123 128.687 155.777 128.687 256.062 0 100.188-49.428 190.841-128.687 255.938zM263.671 373.285l-46.413-38.968c36.764-29.438 60.064-70.718 60.064-116.654 0-45.939-23.245-87.314-60.064-116.689l46.413-39.032c48.738 39.471 79.331 94.536 79.331 155.722 0 61.153-30.591 116.248-79.331 155.621zM186.182 219.152c0-51.419-41.679-93.102-93.091-93.102-51.413 0-93.091 41.683-93.091 93.102 0 51.419 41.678 93.102 93.091 93.102 51.413 0 93.091-41.683 93.091-93.102z" />
<glyph unicode="&#xe04e;" d="M282.276 392.6v-97.774h50.001v25.369h119.507v-205.211h-169.508v-72.384h229.724v350zM116.172 259.595h254.574v-84.017h-254.574v84.017zM179.705 114.984h-119.518v205.211h169.536v72.405h-229.723v-350h229.723v97.751h-50.018z" />
<glyph unicode="&#xe04f;" d="M464.966 125.672v126.837h-174.348v57.018h47.034v164.073h-163.886v-164.073h47.034v-57.018h-173.766v-126.837h-47.034v-164.072h163.886v164.072h-47.034v57.019h278.295v-57.019h-47.034v-164.072h163.887v164.072z" />
<glyph unicode="&#xe050;" d="M357.591 271.037c-0.25 0.389-0.343 1.438-0.468 1.952-0.909 0.046-1.687-0.076-2.471-0.234-0.219-0.717-0.062-2.109-0.313-2.766v0.11c-0.185 0.328-0.563 0.782-0.687 1.046 0 0.173 0.034 0.359 0.063 0.515-0.127 0.062-0.25 0.126-0.343 0.189-0.191 0.407 0.029 0.749-0.191 1.093 0.255 0.548 0.534 1.281 0.877 1.845-0.622 0.655-1.345 0.467-2.156 0.578-0.152 0.422-0.469 0.797-0.816 1.048h-0.777c0.032 1.501-0.973 1.938-1.218 3.344-0.468 0.062-1.309 0.218-1.687 0.468v0.751c0.060 0.061 0.125 0.124 0.187 0.156 1.096 0.062 2.5-0.562 3.062-0.156-0.062 0.078-0.13 0.156-0.188 0.217-0.437 0.141-0.782 0.407-1.032 0.751 0.154 0.533 0.438 0.375 0.691 0.704 0.125 0.298 0.245 0.609 0.341 0.92 0.5 0 0.595 0.188 0.937 0.25 1.252-0.126 2.502-0.25 3.747-0.361-0.031 0.033-0.031 0.080-0.059 0.109-0.407 0.126-1.003 0.343-1.032 0.873 0.844 1.127 1.157 1.518 0.748 3 0.159 0.157 0.313 0.314 0.468 0.468-0.154 0.218-0.277 0.471-0.402 0.689-0.534 0.109-1.031 0.249-1.567 0.342-0.342-0.123-0.527-0.607-1.214-0.467-0.657 0.156-1.030 0.749-1.902 0.811-1.566 0.126-2.568-1.421-3.755-1.782-0.373-0.031-0.745-0.046-1.091-0.063-0.755-0.282-1.063-1.187-1.971-1.391 0-0.359-0.029-0.452-0.188-0.624-0.125 0.078-0.25 0.156-0.404 0.235-0.723-0.438-1.596-1.157-2.532-0.686-0.031-0.080-0.065-0.126-0.127-0.189-0.248-0.812-0.532-1.767-1.096-2.593-0.277-0.438-0.997-0.468-1.031-1.157v-0.311c0.132-0.282 0.504-0.219 0.781-0.389 0.937-0.55 1.063-1.562 1.063-2.609h0.064c0.093 0.358 0.188 0.717 0.277 1.048h0.223v-0.173c-0.312-0.845-0.691-2.092-0.155-2.827 0.469-0.25 0.125-0.545 0.405-0.985 0.122-0.029 0.283-0.062 0.406-0.125 0.563-0.501 0.816-1.312 1.252-1.953 0.185-0.062 0.373-0.109 0.527-0.172 0.473-0.375 1.064-1.188 1.441-1.688 0.279-0.328 0.154-0.749 0.346-1.186 0.184-0.408 0.622-0.799 0.87-1.17 0.471-0.675 1.693 0.169 2.216-0.985 0-0.096 0.039-0.189 0.068-0.282h-0.068c-2.464 1.029-2.684-1.547-2.559-3.079-0.221 0.046-0.221 0.046-0.407-0.049-0.034-0.266-0.123-0.531-0.188-0.812-0.029 0.033-0.096 0.077-0.154 0.109-0.062 0.266-0.062 0.282-0.219 0.422-0.063-0.031-0.125-0.093-0.19-0.124 0-1.531-0.996-3.281-0.527-5.093 0.902-0.282 2.122-0.563 3.184-0.861 1.003-2.702 4.938-2.42 7.81-1.794 0.781 0.189 2.004-0.017 2.531 0.405 0.784 0.61-0.057 2.874-0.218 3.829-0.029 0.155 0.159 0.61 0.159 0.968 0 0.782 0.498 1.359 0.373 1.859-0.284 0.533-0.842 0.594-1.062 1.206-0.534 0.11-0.782 0.2-1.157-0.062v0.421c0.096 0.123 0.185 0.249 0.31 0.405 0.379-0.031 0.784-0.077 1.192-0.109v0.171c-0.247 0.063-0.504 0.173-0.629 0.391l-0.128 0.359c0.128 0.156 0.284 0.344 0.412 0.5-0.753 0-1.598-0.125-1.971 0.062-0.313 0.89-0.221 2.671 0.407 3.344 0.156-0.312 0.313-0.609 0.466-0.904 0.504 0.060 0.563 0.046 0.97-0.064 0.062 0.157 0.091 0.312 0.128 0.468 0.125-0.046 0.247-0.095 0.343-0.126 0.032-0.218 0.032-0.438 0.060-0.64 0.034-0.016 0.061-0.032 0.125-0.047 0.284 0.093 0.629 0.188 0.906 0.282 0.373 0.080 0.373-0.219 0.657-0.126-0.094 0.252-0.157 0.47-0.246 0.704 0.373-0.080 0.402-0.203 0.746-0.282 0.315 0.126 0.409 0.173 0.534 0.451-0.461 0.943-1.368 0.972-1.777 1.628zM283.782 271.507c-0.032-0.093-0.060-0.202-0.128-0.312 0.409-0.062 0.532-0.185 0.753-0.389 0.061 0.047 0.091 0.080 0.125 0.11-0.096 0.188-0.125 0.251-0.282 0.342-0.159 0.093-0.312 0.169-0.468 0.249zM256 473.6c-141.375 0-256-114.625-256-256 0-141.389 114.625-256 256-256 141.373 0 256 114.611 256 256 0 141.375-114.627 256-256 256zM114.844 366.943c0.374 0.561 1.499 0.5 1.968 1.312-0.687 0.826-1.435 1.671-2.154 2.516 0.404 0.797 0.814 1.579 1.843 1.828 1.122-0.406 1.999-0.564 3.312-0.501-0.688 1.346-1.31 2.642-2.032 4.001l3.188 0.97c-0.5 0.78-1.001 1.594-1.501 2.341 0.5 0.675 1.001 1.346 1.501 2.002 1.003-0.612 1.999-1.219 3-1.813 3.125-0.875 7.282 2.502 10.657 1.157 0.5-1.001 1.093-1.001 0.186-1.843-1.903-3.562-8.093-3.002-8.499-8.141 0.156-0.237 0.315-0.453 0.501-0.705 4.22-0.015 13.689 1.266 16.314-0.657 0.342-0.779 0.654-0.626 0.342-1.328-1.438-3.64-3.467-11.045-8.658-11.141 0.063-0.124 0.093-0.219 0.159-0.342 0.87-0.468 1.779-0.968 2.652-1.485-0.089-0.080-0.247-0.125-0.342-0.172-1.406-1.718-4.903-2.078-8.124-2l0.156-0.342c4.312-1.779 4.563 0 7.968 0.188 2.127 0.109 7.532-4.421 8.347-5.827 1.031-2.685 0.686-5.639 2.497-7.796 0.97-1.235 2.534-0.562 4.003-1.361 1.249-1.67 2.532-3.329 3.811-4.985 0.906-1.342 0.628-5.281 0.657-5.327 3.439-3.735 5.561-3.079 2.032-8.343 0.842-0.142 1.717-0.327 2.623-0.486 2.565 3.61 7.407 0.955 9.691-0.842 0.125-1.438 0.312-2.86 0.467-4.312-0.812-2.502-7.689-7.017-10.438-7.845v-0.14c1.561-0.078 7.438-0.611 7.782-0.86h0.343v-2.314c-1.25-0.282-3.408-0.779-3.468-2.343-2.753 0.265-3.407-1.267-5.343-1.658-1.597 0.235-3.249 0.468-4.846 0.657-1.092-0.266-2.218-0.546-3.311-0.845-0.875 0.157-1.221 1.032-2.533 0.845-2.219-0.314-4.438-0.657-6.656-0.985 0.126-0.404 0.22-0.795 0.375-1.153-4.903 0.42-6.249 0.951-11.532 0.295-0.153-5.236-2.656-3.844-5.469-2.313-0.688-0.467-1.282-0.908-2.499-0.312-2.313-0.812-4.312-2.188-5.655-4.017-0.407 0.391-0.784 0.796-1.19 1.173-0.814 0.216-1.655 0.438-2.499 0.687 0.060 0.093 0.125 0.187 0.189 0.312 3.060 0.921 8.78 4.749 9.155 8.312 1.968-0.329 1.564 0.75 2.499 1.827 2.907 1.375 5.565-0.687 8.969 0.142 0.091 1.937 1.592 2.967 2.341 4.515-1.714-0.703-2.967-1.859-5.343-1.969h-0.311c-1.625 0.797-3.222 1.515-4.81 2.327-2.221 0.049-4.439 0.093-6.689 0.142-0.657 0.578-1.345 1.141-1.969 1.688 0.249 0.265 0.533 0.547 0.842 0.829 0.812 1.562 5.782 1.718 7.812 4.688 0.031 1.421 0.406 3.188-0.188 4.108v0.36h-3.501v0.156c1.938 3.877 7.188 4.421 12.812 4.501v0.156c-1.625 3.297 0.221 5.25 0.344 9.344h-0.188c-0.935-0.188-1.843-0.344-2.813-0.533-0.906 1.064-1.655 1.468-2.341 2.843 0.467 2.249 1.997 3.187 3.186 4.658-4.75 1.233-3.374-0.61-7-0.846-1.001 0.282-1.999 0.594-3.002 0.846-0.124-1.001-0.373-1.19-0.999-1.625l-4 0.968c0.404 2.578 4.061 5.704 3.186 7.312-1.122 0.593-1.594 1.876-1.343 3.331 0.971 0.295 1.471 0.795 1.999 1.531-0.188 0.703-0.342 1.405-0.5 2.155h-0.654c-1.846-1.547-4-2.765-6.158-4.001v0.315c-1.282 2.499 1.472 5.671 2.347 8.046-0.722 0.39-1.376 0.859-2.032 1.281l-0.156-0.329c-0.684-0.861-1.062-1.53-1.998-2.141-0.562 0.249-1.124 0.531-1.688 0.812 0.374 0.56 3.032 5.312 3.032 5.312-0.251 1.064-0.44 2.145-0.656 3.189zM83.373 309.179c-0.936-0.124-1.902-0.235-2.844-0.342-0.187 0.922-0.531 1.466-0.342 2.327 0.595 0.203 1.217 0.438 1.81 0.687v0.156c-1.215 0.062-2.403 0.109-3.651 0.156 0.060 0.391 0.123 0.799 0.186 1.157 1.406-0.062 4-0.282 4.841 0.344 0.593 0.626 0.562 1.985 1.126 2.688 1.75 0.281 3.719 0.189 4.186 1.968-1.217-0.156-2.469-0.344-3.688-0.5l0.377 0.344c0.311 0.498 0.653 0.984 0.97 1.499-0.438 0.673-0.533 0.407-0.317 1.001 0.91 2.125 2.158 1.562 4.314 2.483-0.153 0.454-0.311 0.891-0.469 1.329-1.376-0.779-7.688 0.361-9.031 1.017 0.342 0.421 0.688 0.861 1.001 1.312-0.218 0.235-0.438 0.455-0.657 0.687 0.752 0.142 1.564 0.295 2.311 0.484-0.279 1.765 0.036 1.592 1.003 2.687h-0.314c-1.031 0.921-1.846 0.719-3.345 0.311v1.001c0.471 1.717 1.001 2.562 2.158 3.498 2.685-1.001 6.467-1.062 9.812-1.343-0.247 0.626-0.5 1.11-0.467 1.656 1.782 0.53 2.843 1.173 3.5 2.859h-4.812c0.156 0.204 0.314 0.406 0.467 0.671 0.688 0.142 1.312 0.314 2.032 0.47 0.908 3.358 2.094 4.999 5.94 5.327 0.407-1.296 1-1.969 2.688-1.983 3.091 1.28 8.029 2.092 10.466 0.312 0.908-2.75 2.22-5.236 2.689-8.468-1.563-2.702-2.689-3.188-6.001-4.157 1.408-1.969 4.124-8.283 3.156-11.518-0.562-1.922-2.218-3.169-2.658-5.983-1.25-0.062-2.532-0.093-3.842-0.156-0.189-0.344-0.438-0.657-0.626-1.001-1.969-0.155-3.905-0.311-5.874-0.468-1.969-1.468-3.937-2.907-5.94-4.358-0.906-0.046-1.81-0.11-2.685-0.186-2.125-0.58-4.028-1.625-7.155-1.797 0.061 1.594 0.124 2.548-0.315 3.829zM306.75 152.227c0.027-0.643-0.688-0.973-0.841-1.404l-0.223-2.904c-0.591-1.068-1.214-2.161-1.813-3.239-0.466-0.452-0.937-0.891-1.405-1.345 0-0.293 0.037-0.609 0.066-0.921-0.843-1.312-1.654-2.622-2.471-3.937-0.13-0.531-0.218-1.093-0.341-1.608-1.223-2.923-4.005-5.236-5.85-7.621-0.935-1.141-1.902-2.298-2.841-3.454-2.532-2.034-5.687-3.58-8.219-5.644-2.313-2.606-4.625-5.218-6.909-7.795 0.188-0.469 0.188-0.691-0.091-1.062-0.723-0.33-1.159-0.748-2.127-0.563-0.029-1.685-1.029-1.685-2.091-2.284-0.128-2.496-1.596-2.562-2.063-4.077-0.191-0.669 0.281-1.075-0.282-1.823-0.218-0.329-0.721-0.281-0.968-0.562-0.439-0.507-1.53-3.938-1.123-5 0.373-1.002 1.559-1.606 2.182-2.406-0.059-0.755-0.652-1.719-0.995-2.392 0.218-0.279 0.5-0.331 0.718-0.625-0.656-1.766-0.154-4.938 0.782-6.127 0.906-1.229 2.218-1.42 2.937-2.984-0.312-0.593-0.655-1.202-0.969-1.809 0.187-1.113 0.909-3.127 0.628-4.377-0.128-0.514-0.471-0.814-0.5-1.187 0.906-1.062 0.561-3.003 0.781-4.813 0.248-0.092 0.5-0.236 0.782-0.344 0.031-0.104 0.031-0.216 0.059-0.343-0.312-0.652-0.654-1.046-1.031-1.56 0.095-0.343 0.19-0.468 0.19-0.781-1.154-1.394-2.127-3.314-3.656-4.359-2.096-1.441-4.875-1.875-7.125-3.236-1.846-1.141-2.816-3.154-4.441-4.514-1.312-0.969-2.622-1.923-3.934-2.891v-2.25c0.563-0.314 1.188-0.723 1.25-1.566-0.468-1.125 0.062-2.779 0.502-4.156 0.468 0.038 0.53 0.095 0.84 0.223 0.063-1.378 0.126-2.937-0.218-4.282-0.126-0.377-0.28-0.721-0.408-1.063-0.029-0.073-0.060-0.152-0.060-0.219 0.093-0.372 0.593-0.091 0.687-0.779-1.217-2.957-4.342-2.815-7.031-4.298-1.217-0.673-1.846-1.608-2.688-2.611 0.062-0.057 0.126-0.152 0.218-0.218 0.188-0.389 0.626-0.675 1.063-0.844 0.219-1.608-0.218-4.486-0.998-5.495-0.284-0.332-0.814-0.207-0.97-0.711-0.128-0.262 0.407-1.044 0.185-1.603-0.436-1.193-2.561-2.066-3.374-3.3-3.282-5-6.689-9.019-11.283-12.644-0.904-0.777-1.81-1.589-2.75-2.375-0.841-0.591-3.875-0.245-4.436-0.781-0.126-0.262-0.156-0.657-0.342-0.842-0.626 0.142-1.283 0.28-1.906 0.419-0.282-0.514-0.626-0.777-1.063-1.137-0.906 0.327-2.186 1.532-3.531 1.137-0.375-0.214-0.752-0.419-1.126-0.637-1.281 0-1.998 0.784-3.655 0-0.344-0.329-0.719-0.657-1.062-0.986-1.157-0.543-2.657 0.329-3.938-0.072-0.908-0.25-1.312-1.101-1.968-1.625-0.564 0.151-1.565 0.543-1.847 0.995-0.186 0.454-0.186 0.725-0.437 1.070-0.534 0-0.812-0.068-1.094-0.068-0.156 0.25-0.312 0.5-0.438 0.75-0.312 0-0.375-0.031-0.562-0.141-0.095-0.141-0.125-0.31-0.218-0.484-0.063 0.029-0.158 0.048-0.188 0.062-0.128 0.127-0.249 0.25-0.342 0.359 0.155 0.543 0.342 1.108 0.533 1.611-0.375 0.634-2.032 2.841-1.75 3.184 0.187 0.277 0.687 0.191 1.062 0.277 0.749 3.271-1.157 5.286-2.281 7.255-1.25 2.231-1.688 4.932-3.033 7.045-1.282 1.453-2.562 2.923-3.873 4.357l-1.126 3.471c0 0.313 0.377 0.593 0.222 1.122-0.189 0.691-0.911 1.437-1.001 2.332-0.033 0.673 0.531 1.323 0.312 2.259-0.281 0.603-0.533 1.209-0.779 1.818-0.345 1.56-0.656 3.109-1 4.654 1.841 1.875-1.439 4.719-2.251 6.346-1.188 2.387-2.408 4.779-3.595 7.188-0.722 1.171-1.968 2.094-2.407 3.594-0.529 1.968-0.125 4.95-0.125 7.188 2.001 1.502 1.408 5.343 2.472 7.812 0.342 0.354 0.653 0.716 0.966 1.059 0.191 0.452 0.376 0.909 0.598 1.346 0.279 0.127 0.626 0.221 0.966 0.343 0.908 0.58 1.408 2.527 1.624 3.748-0.092 1.094-0.185 2.205-0.28 3.296-0.468 1.427-3.687 4.22-0.966 5.454 0.311 2.219-0.939 2.782-1.565 4.266-0.156 0.703-0.281 1.361-0.437 2.064-0.499 0.702-1.001 1.406-1.469 2.108-0.626 1.096-0.096 2.123-0.438 2.875-0.187 0.482-1.122 2.313-1.468 2.753-1.248 1.156-2.5 2.307-3.719 3.461-0.719 0.975-1.282 1.693-2.278 2.313 0.126 0.159 0.247 0.332 0.342 0.505-0.376 0.468-0.593 0.187-1.188 0.5-0.468 0.654-0.937 1.359-1.406 2.027 0.034 0.036 0.034 0.111 0.062 0.159 0.249 0.154 0.468 0.313 0.719 0.5-0.468 0.591-0.873 0.356-1.283 0.75-0.249 0.264-0.689 1.245-0.842 1.563 1.311 0.559 1.781 1.716 2.125 3.234 0.409-0.048 0.842-0.096 1.25-0.139v0.057c-0.53 0.468-1.061 0.934-1.597 1.406 0.722 0.221 0.877 0.909 0.815 1.846-0.279 0.048-0.531 0.096-0.815 0.157 0 0.057 0.034 0.125 0.065 0.184 0.747 0.688 1.406 1.786 1.688 2.907-0.093 0.343-0.186 0.688-0.282 1.045 0.096 0.471 0.249 0.921 0.344 1.426-0.191 1.026-0.875 1.781-1.126 2.651 0.222 0.162 0.438 0.33 0.626 0.505-0.033 0.057-0.091 0.096-0.126 0.139-0.091 0.144-0.187 0.3-0.278 0.428-2.5-0.080-1.721 0.468-2.471 1.822-0.341 0.425-1.691 0.755-1.968 0.577 0.123-0.291 0.153-0.404 0.123-0.718-1.217-0.484-2.686-0.246-3.812-0.060-2.032-1.845-5.625-0.122-5.907 2.185 0.156 0.365 0.282 0.688 0.438 1.048-0.096 0.108-0.156 0.204-0.222 0.3-0.249 0.014-0.53 0.031-0.78 0.063-0.155 0.277-0.342 0.56-0.502 0.841-0.498 0.625-2.812 2.094-3.653 2.25-0.468-0.154-0.564-0.5-0.906-0.625-2.409-0.221-4.752-0.425-7.128-0.644-0.812-0.261-0.84-1.045-1.406-1.463-0.968-0.096-1.937-0.207-2.907-0.303-2.278-1.029-4.528-2.063-6.842-3.093-0.438 0.363-2.686 1.786-3.153 1.846-0.095-0.155-0.249-0.296-0.344-0.437-0.719-0.255-1.783 0.309-2.344 0.437-1.249 0.247-3.467 0.013-4.5-0.296-1.188-0.329-2.344-0.641-3.533-0.988-1.124-0.578-2.251-1.155-3.375-1.75-0.844-0.234-3.593 1.552-4.282 1.893-2.218 1.137-3.408 2.687-5.281 4.014-0.91 0.484-1.781 0.938-2.688 1.404-1.217 0.828-2.028 1.998-3.593 2.486 0.062 0.544 0.126 0.669-0.095 1.048-1.154 0.185-2.562 1.216-2.872 2.248h0.126c0.282 0.223 0.531 0.437 0.779 0.644 0 0.074-0.030 0.17-0.060 0.293-0.312 0.031-0.533 0.082-0.719 0.284v1.048c-0.222 0.854-1.157 1.077-1.534 1.75-0.058 0.358-0.123 0.718-0.216 1.059-1.125 0.344-2.221 1.063-2.968 1.832 0.155 0.387 0.155 0.682 0 1.059-0.72-0.034-0.935 0.096-1.312 0.344 0.033 0.329 0.096 0.434-0.093 0.639-0.249 0.233-0.811 0.3-1.124 0.481-0.187 0.973 0.438 1.316 0.841 1.846-0.559 0.641-1.53 0.221-2.249 0.063l-1.406 0.843c-0.064 0.171-0.095 0.344-0.125 0.498-1.127 0.736-0.659-0.375-1.567 1.127 0.222 0.935-0.187 2.123 0.377 2.905 0.186 0.029 0.408 0.095 0.626 0.125 0 0.393-0.033 0.627-0.156 0.861-0.97 0.454-0.97 2.608-2.967 3.437 0.029 0.050 0.060 0.108 0.060 0.159 1.438 0.483 2.625 2.509 3.062 3.997 0.062 0.769 0.187 1.516 0.249 2.266 0.782 2.594 2.311 6.7-0.249 8.721 1.031 1.546 0.906 5.123-1.282 5.279-0.189-0.168-0.343-0.358-0.501-0.563-0.186 1.486 0.093 3.394 0.722 4.313 0.498 0.56 1.028 1.123 1.53 1.689 0.718 1.625 1.406 3.247 2.124 4.875 0.688 0.936 2.221 1.47 2.658 2.608 0.062 0.469 0.062 0.984 0.093 1.469 0.249 1.204 0.782 2.55 1.406 3.454 0.593 0.841 2.029 1 2.686 1.846 0.812 1.032 1.031 3.623 2.25 4.2 1.031 0.518 2.376 0.437 3.375 0.858 1.906 0.814 5.283 3.689 6.407 5.346 1.78 2.625-0.75 3.782 0.093 6 0.342 0.938 1.284 1.515 1.687 2.328 0.317 0.64-0.030 1.466 0.222 2.109 0.219 0.625 2.125 2.266 2.751 2.67 1.75 1.221 4.063 1.346 5.346 3.049 0.839 1.141 1.936 5.312 2.749 5.907 0.344 0.154 0.689 0.329 1.031 0.499 1.001-0.999 1.594-2.218 3.125-2.687 1.469-0.438 5.188 0.733 5.283 0.717 0.375-0.968 2.062-1.419 3.501-0.999 1.312 0.375 1.249 1.281 2.124 1.907 0.375 0.265 2.251 0.905 2.72 0.998 0.248-0.282 0.468-0.389 0.966-0.438 0.937 0.812 1.688 1.876 2.94 2.407 1.343 0.546 3.187 0.156 4.781 0.5 0.533 0.219 1.063 0.468 1.563 0.687 0.626 0.093 0.968-0.5 1.783-0.203 0.407 0.235 0.844 0.471 1.247 0.704 2.22 0.562 3.659-1.125 5.564-0.704 1.25 0.269 2.125 0.938 2.969 1.548 0.72-0.249 1.125-0.782 1.967-0.921 0.563 0.295 0.784 0.75 1.47 0.859 0.875-0.298 1.311-0.985 1.565-1.063 1.841-0.545 3.747 1.438 4.808 1.812 0.316 0.062 0.658 0.109 0.97 0.156 0.533-0.234 1.031-0.469 1.564-0.718 0-0.594 0.219-0.955 0.404-1.392 0.126-0.015 0.252-0.049 0.344-0.080 0.722 0.424 1.407 0.842 2.125 1.283 0.031-2.345-3.813-3.235-0.060-5.376 0.124-0.47 0.217-0.938 0.34-1.406 0.033-0.921-2.937-3.361-3.593-4.097 0.218-1.075 1.345-1.843 2.252-2.31 0.594 0.141 0.654 0.342 1.341 0.282 0.095-0.375 0.188-0.752 0.284-1.125 1.436-0.611 2.872-1.219 4.312-1.845l3.153 0.222 2.188-0.424c0.312-0.266 0.624-0.564 0.908-0.846 0.531-0.234 1.062-0.045 1.687-0.281 1.155-0.421 1.376-3.126 2.688-3.875 1.187-0.673 4.529-0.719 5.998-1.266 1.47-0.58 2.72-2.407 4.438-2.626 0.657-0.045 1.219 0.488 1.625 0.723 3.467 1.875 0.093 3.28 1.624 5.843 1.124 1.89 5.814 3.593 8.658 2.328 1.124-0.484 0.719-1.485 1.501-1.89 0.813-0.342 2.721-0.64 3.593-0.779h1.594c0.722-0.235 0.562-1.326 1.217-1.625h3.5c1.657-0.344 3.316-0.702 4.941-1.062 0.153-0.187 0.277-0.375 0.435-0.562 0.656-0.062 1.377-0.142 2.032-0.219 0.626-0.156 1.471-0.875 2.343-0.688 0.438 0.344 0.877 0.688 1.312 1.063 1.657 1.094 4.315 1.671 6.719 1.19 0.188-0.782 0.562-0.875 1.031-1.346 1.375 0.235 1.876-0.533 3.123 0.342 1.912-1.031 2.378 0.062 3.724 0.219 0.84-2.109 1.654-4.218 2.467-6.344-1.406-1.216-1.154-3.858-2.029-5.622-0.344-0.063-0.656-0.096-0.842 0.141-1.969 1.705-3.563 4.391-4.468 7.106-0.626-0.248-0.659-0.483-1.032-0.995 0.438-2.584 2.251-3.863 3.312-5.752 0.593-1.611 1.217-3.209 1.811-4.813 1.438-2.277 2.564-5.077 4.096-7.392 0.562-0.561 1.124-1.141 1.719-1.69-0.284-0.234-0.533-0.469-0.784-0.702 0.249-0.889 0.344-1.984 0.842-2.685 0.377-0.563 1.19-0.707 1.75-1.111 1.127-0.846 2.44-3.234 2.813-4.734 0.563-2.295-0.187-6.425 1-8.031 0.75-1.016 3.468-1.577 4.002-2.83 1.188-2.67 1.657-7.875 3.688-9.574 0.030 0.031 0.091 0.048 0.125 0.095 0.062 0.264 0 0.905 0.221 1.15 0.654-0.341 1.060-1.279 1.468-1.873 0.592 0.014 1.030 0.094 1.437-0.074 0.969-1.082 1.969-2.144 2.941-3.239 0.372-0.218 0.904-0.014 1.214-0.281 0.595-0.578 0.781-1.935 0.968-2.123 1.096-1.032 3.598-1.5 3.69-3.375-0.627-0.625-2.156-1.25-2.908-1.625v-0.125c0.031-0.029 0.093-0.048 0.156-0.062 0.688-0.127 1.502 0 2.094-0.173 0.656-1.391 2.026-2.641 3.031-3.731h1.971c1.029 0.471 2.027 0.904 3.029 1.341 1.252 0.236 1.596-0.827 2.687-0.402 0.782 0.498 1.596 1.016 2.377 1.543h0.152c0.659-0.077 1.312-0.141 1.971-0.218 0.657 0.173 1.221 0.973 2.187 0.795 0.5-0.122 1.281-0.495 2.125-0.313 1.906 0.438 2.971 1.394 4.281 2.351 0.562-0.255 1.125-0.469 1.689-0.726 0.031-0.057 0.061-0.125 0.061-0.221-0.186-0.432-0.375-0.87-0.529-1.341-0.232-0.684 0.14-1.372 0.172-1.87zM474.968 176.041c-0.093-0.032-0.188-0.096-0.313-0.128-0.497 1.596 0.341 3.654 0.937 5.139l-0.468 0.359c-0.248 0.656 0.75 3.031 1.061 3.752-0.311 0-0.468 0.032-0.625 0.109 0.032 1.298 0.25 2.623-0.245 3.92-0.471 1.298-1.44 2.628-1.846 4.111-0.25 1.642-0.468 3.28-0.72 4.921-0.971 0.282-1.003 1.861-1.784 2.423h-0.25c-0.246-2.827-1.062-1.925-2.75-3.111-0.532-0.373-0.655-1.764-1.371-1.109v0.516c-0.47-0.029-0.504-0.188-0.754-0.406h-0.248c-0.096 0.093-0.19 0.188-0.277 0.298 0.057 0.233 0.125 0.466 0.152 0.702-0.718-0.094-0.934-0.341-1.375-0.702-0.125 0.108-0.25 0.188-0.404 0.3 0.029 1.279 0.777 2.106 0.934 3.279 0.25 1.969-0.627 4.091-1.343 5.248-0.032 0-0.060-0.029-0.096-0.048-0.093-0.173-0.221-0.341-0.312-0.519-0.375 0.162-0.723 0.346-0.97 0.632 0.315 0.057 0.629 0.125 0.908 0.182v0.064c-0.22 0.747-0.563 1.736-1.186 2.063-0.439 0.218-0.691-0.091-1.189 0.236v0.764c-0.188 0.063-0.466 0-0.656 0.048-2.187 0.611-1.719 5.17-3.316 6.42-0.434-0.221-0.688-0.406-1.338-0.406-0.284 0.377-0.564 0.766-0.844 1.139-0.063-0.032-0.093-0.075-0.129-0.109-0.155-0.154-0.128-0.437-0.128-0.748 0.255-0.497 0.505-1.048 0.286-1.673-0.593-0.17-0.718-0.233-0.843-0.858h-0.409c-0.188 0.343-0.409 0.688-0.593 1.029-0.030 0-0.063-0.027-0.096-0.062-0.029-0.5-0.218-0.779-0.468-1.093h-0.342c-0.095 0.186-0.154 0.389-0.22 0.563-0.094-0.050-0.155-0.096-0.248-0.157-0.125-0.187-0.25-0.377-0.346-0.579-0.187 0.077-0.341 0.202-0.531 0.298-0.091-0.248-0.091-0.375-0.030-0.657h-0.815c-0.096 0.409-0.185 0.813-0.468 1-0.030-0.045-0.058-0.077-0.058-0.123-0.161-0.247-0.315-0.55-0.47-0.8-0.123 0.032-0.219 0.082-0.378 0.111-0.029 0.373-0.22 0.721-0.5 0.907-0.277-0.279-0.562-0.591-0.87-0.907-0.784-0.531-1.755-0.622-2.409-1.266 0.125-0.423 0.25-0.813 0.346-1.231-0.755-0.83-1.128-1.861-2.096-2.474-0.752-0.483-1.938-0.372-2.657-0.872-0.877-1.063-1.747-2.157-2.658-3.221-0.342-0.315-0.717-0.343-1.155-0.593-0.593-0.359-0.937-1.25-1.595-1.673-0.594-0.296-1.187-0.577-1.75-0.859-0.532-0.438-0.375-1.559-0.998-1.971-0.534-0.375-1.534-0.17-2.066-0.466-0.156-0.534-0.408-1.221-0.877-1.502-0.65 0.373-1.187 0.248-1.718-0.188-0.185-0.405-0.373-0.841-0.594-1.248-0.309-1.407 0.534-2.832 0-4.111 1.625-1.796-0.745-4.014-0.968-5.954-0.125-1.046 0.375-2.219 0.154-3.277-0.563 0.014-1.216 0.029-1.529-0.191-0.248-0.654-0.469-1.309-0.688-1.971 0.19-0.139 0.375-0.279 0.497-0.514-0.745-0.233-1.493-0.502-2.247-0.752-0.313-0.359-0.123-0.827-0.341-1.322-0.28-0.564-1.437-1.128-2.25-1.159-0.562 0.577-1.098 1.159-1.659 1.736-0.248 1.014-0.56 2.041-0.841 3.072-0.652 1.473-1.342 2.959-2.030 4.423-0.343 0.519-0.687 1.016-1.031 1.514-0.188 0.723-0.373 1.425-0.594 2.159-0.438 1.404-0.909 2.846-1.47 4.141-0.873 1.919-2.159 3.669-2.782 5.952-0.313 1.859-0.623 3.748-0.937 5.607-0.248 1.329-0.498 2.659-0.745 3.986 0.057 0.704 0.777 1.175 0.902 1.718 0.159 0.562-0.748 0.923-0.902 1.344-0.255 0.72-0.284 1.938-0.132 2.593-0.498 0.036-0.966 0.036-1.282-0.17-0.029-0.262-0.122-0.532-0.214-0.798 1.187-1.562-0.973-2.282-2.281-2.734-0.409-0.106-0.752-0.266-1.125-0.391-1.252 0.062-4.75 3.593-5.219 4.606h0.157c1.373 0.486 2.062-0.606 3.312 0.705 0.313 0.281 0.498 0.406 0.498 0.877-1.998-0.723-4.498 0.248-5.433 1.389-0.284 0.375-0.563 0.766-0.815 1.141-0.723 0.407-1.313 0.096-1.755 0.702-0.184 0.609-0.402 1.217-0.622 1.859-0.439 0.080-0.844 0.173-1.28 0.268 0.062 1.11 0.030 1.548-0.627 2.015-1.25-0.062-5.502-1.75-6.25-0.218-0.813-0.126-1.221-0.438-1.721-0.626h-2.591c-0.934-0.158-2.034-0.593-3.248-0.407-0.908 0.125-1.283 0.562-1.97 0.735-1.282 0.029-2.563 0.046-3.88 0.076-0.218 0.202-0.434 0.408-0.687 0.626h-2.313c-0.434 0.187-1.059 0.594-1.684 0.687 0 0.876-0.63 1.281-0.878 1.907-0.187 0.546-0.125 1.063-0.279 1.435-0.468 0.049-0.343 0.25-0.784 0.361-1.125 0.282-2.063-0.080-2.966-0.408-0.091-0.451-1.407-1.233-1.784-1.577-0.777 0.109-1.156 0.686-1.779 0.875-1.157 0.404-2.123 0.375-3.060 0.938-0.437 0.517-0.877 1.047-1.286 1.561-0.843 0.58-2.25 0.501-2.841 1.328-0.5 0.702-1.437 2.327-1.721 3.062v0.921c-0.279 0.609-1.188 1.279-1.562 1.906-0.723-0.265-1.845-0.374-2.216 0.282-0.161 0.202-0.161 0.498-0.161 0.875h-0.182c-0.725-0.312-0.659-0.891-1.159-1.392-0.593 0.015-1.877-0.032-2.127-0.342 0.095-0.358 0.159-0.735 0.218-1.093h-0.4c-0.19-0.235-0.381-0.471-0.563-0.704 0.096-0.062 0.219-0.095 0.341-0.156 0.346 0.062 0.655 0.156 1 0.219 0.437-1.783 1.25-3.344 1.88-5.032 0.529 0.016 0.721 0.049 1.062-0.126-0.188-0.312-0.284-0.312 0.029-0.56 0.411-0.906 1.721-0.812 2.284-1.562-0.065-0.438-0.223-0.408-0.409-0.688 0.091-0.188 0.219-0.405 0.341-0.58-0.404-1.031-0.184-1.11 0.096-2.079 0.373 0.064 0.402-0.045 0.718-0.28 0.064-0.939 0.63-2.298 1.032-2.845 0.562-0.062 0.532 0.173 0.468 0.812-0.436 1.062-0.127 3.156 0.623 3.687 0.159-0.017 0.284-0.031 0.409-0.046 0.154-0.361 0.313-0.295 0.468-0.517 0.064-0.123 0.248-2.297 0.219-2.545-0.029-0.799-1.029-1.172-0.687-1.956 0.438-0.138 0.687-0.186 0.596-0.702 0.654-0.014 1.187-0.126 1.841-0.046 0.098 0.251 0.098 0.251 0.279 0.391 0.752-0.358 3.659-0.421 4.346-0.172 0 0.095 0.034 0.188 0.062 0.282 0.284-0.187 0.468-0.156 0.848-0.062 0.184 0.47 0.309 0.375 0.649 0.64 0.189 0.406 0.439 0.826 0.63 1.217 0.873 1.127 1.807 1.612 2.841 2.423 0.409 0.531 0.816 1.048 1.223 1.562h0.029c0.125-1.016-0.095-1.471-0.497-2.094 0.277 0 0.372 0 0.497-0.156 0.219-0.468-0.065-1.252 0.125-1.859 0.248-0.799 1.25-1.813 1.905-2.251 0.812-0.453 1.625-0.875 2.437-1.328 0.563-0.124 1.065 0.251 1.502-0.064 0.562-0.715 1.154-1.465 1.718-2.186 0.373-0.361 1.346-0.56 1.471-1.154-0.409-0.798-0.907-1.534-1.471-2.187-0.375-0.38-0.781-0.753-1.12-1.111-0.344-0.564-0.438-1.517-0.941-1.905-0.468-0.268-1.061 0.171-1.561-0.050-0.344-1.059-0.155-2.75-0.248-3.827-1.438-0.045-2.723-0.346-3.154-1.452-0.159-0.375-0.123-0.782-0.407-1.029-0.815-0.657-1.625-0.063-2.498-0.469-0.848-0.372-0.563-1.42-0.973-2.254-0.25-0.123-0.468-0.248-0.688-0.405-0.652 0.064-1.279 0.171-1.902 0.25-1.125-0.375-2.218-0.731-3.315-1.127-0.652-0.245-1.625-0.902-1.902-1.527-0.286-0.656-0.125-1.125-0.687-1.468-2.036-1.236-4.846-1.236-7.002-2.423-0.594-0.313-0.753-1.111-1.375-1.441-0.628-0.309-1.375 0.066-2.091-0.182-1.032-0.332-1.971-1.19-3.128-1.55-0.75-0.218-1.846 0.125-2.723-0.127-0.498-0.402-1.027-0.839-1.559-1.28-1.532-0.968-4.157-1.324-5.030 0.534v1.971c-0.466 1.279-1.22 2.966-1.502 4.498-0.096 0.545 0.221 0.813 0.312 1.159-0.091 0.625-0.187 1.245-0.312 1.841-0.343 1.029-1.346 2.5-2.127 3.122-0.31 0.253-0.625 0.473-0.905 0.723l-2.47 4.969c-0.625 0.8-2.066 0.973-2.687 1.843-0.466 0.659-0.935 1.313-1.407 1.971-0.466 1.282 0.155 2.986-0.437 4.159-0.593 1.062-1.213 2.157-1.809 3.217-0.909 0.908-2.159 1.206-2.941 2.281 0.378 1.688-0.718 2.689-1.504 3.719-0.996 1.439-1.777 2.814-2.714 4.346-0.438 0.562-0.843 1.093-1.282 1.624l-0.968 0.063c0.091 1.093 0.652 2.452 0.873 3.688-0.248 0.172-0.373 0.125-0.469 0.295-0.687 1.701-1.345 3.391-2.027 5.078 0.873 0.719 1.187 1.843 1.56 3.061 0.063 0.407 0.154 0.782 0.221 1.156 0.906 1.562 1.436 3.968 2.781 5.267-0.502 1.234 0.125 1.985-0.688 3.002 0.248 0.421 0.468 0.875 0.593 1.392-0.154 0.279-0.315 0.531-0.468 0.812 0.313 0.422 0.782 0.657 1.157 1.032-0.032 0.125-0.032 0.251-0.066 0.358-0.125 0.142-0.248 0.298-0.343 0.454h-0.248c-0.309-0.42-0.748-0.687-1.091-1.031-0.968 0.126-1.346 0.626-2.593 0.626-0.503-0.562-1.066-0.749-1.437-1.501-0.75-0.156-2.253-0.782-3.473-0.407-0.873 0.282-1.187 1.124-1.841 1.562-0.939 0.593-2.25 0.921-3.532 0.749-0.154-0.655-0.279-1.31-0.409-1.968-0.127 0-0.25-0.033-0.341-0.062-0.627 0.404-1.813-0.093-2.718 0.188-0.248 0.533-0.469 1.063-0.689 1.625-0.279-0.22-0.436-0.484-0.718-0.342-0.534 0.249-0.534 0.468-1.312 0.438-0.187-0.188-0.377-0.375-0.563-0.563-0.062 0.031-0.096 0.031-0.125 0.062-0.062 0.126-0.125 0.264-0.188 0.406 0.063 0.282 0.154 0.282 0.313 0.453-0.029 0.047-0.062 0.080-0.096 0.107-0.591 0.063-1.218 0.126-1.841 0.188-0.059 0.109-0.127 0.217-0.154 0.342 0.25 0.093 0.498 0.188 0.745 0.282-0.027 0.095-0.057 0.156-0.057 0.235-0.313 0.188-0.63 0.391-0.938 0.58-0.218 0.377-0.034 0.97-0.034 1.501-0.843 0.219-1.062 0.531-2.029 0.656v0.408c0.096 0.188 0.184 0.405 0.279 0.624 0.313-0.187 0.534-0.375 0.816-0.406 0.408 0.282 0.5 0.157 0.156 0.563-0.252 0.219-0.409 0.471-0.343 0.704 0.343 0.078 0.625 0.171 0.841 0.404-0.063 0.080-0.125 0.156-0.188 0.235h-0.53c0.060 0.376 0.25 0.358 0.125 0.58-0.125 0.202-0.284 0.344-0.593 0.391 0.154 0.155 0.279 0.311 0.437 0.467 0.218 0.126 0.341 0.25 0.504 0.468v0.062c-0.786-0.109-1.567-0.235-2.379-0.344 0.038 0.533 0.19 1.094 0.284 1.72 0.688 0.062 0.309 0.249 0.654 0.58 0.468 0.484 1.471 0.765 2.282 0.858 0.19-0.484 0.841-0.593 1.468-0.404v0.188c-0.125 0.062-0.218 0.109-0.341 0.172 0.029 0.031 0.029 0.077 0.059 0.108 0.282 0.092 0.469 0.092 0.782-0.064-0.063-0.106-0.191-0.218-0.277-0.344 1.118 0.063 2.027 0.126 3.060-0.060 0.059 0.080 0.122 0.156 0.188 0.249-0.066 0.031-0.13 0.064-0.188 0.109-0.221 0.046-0.469 0.108-0.689 0.173 0 0.235 0.064 0.249 0.221 0.468 0.841 0 1.902 0.062 2.562 0.282v0.062c-0.468-0.033-0.966-0.049-1.435-0.062-0.125 0.423-0.504 0.532-0.75 0.811l0.342 0.687c0.841-0.062 1.69-0.156 2.531-0.218 0.154 0.047 0.341 0.093 0.532 0.156 1.063-0.188 1.622-0.78 2.872-0.109 0 0.142-0.029 0.311-0.029 0.451 1.596 0.533 2.875 1.657 4.654 2.094 1.971 0.47 3.348-0.719 4.907 0.282 0.404-0.5 0.341-1.124 1.123-1.312 0.622-0.156 1.281 0.298 1.531 0.095 0.407-0.626 0.407-0.984 1.123-1.312 1.281 0.484 1.502-0.5 2.659-0.686 0.937-0.173 2.563-0.564 3.468-0.361 0.469 0.142 0.937 0.299 1.437 0.454 1.029 0.187 1.873-0.563 3.063-0.282 2.123 0.533 3.654 1.422 2.964 4.047-0.152 0.484-0.313 0.955-0.437 1.452-0.652 0.985-2.527 1.22-3.468 1.907 0.036 0.188 0.093 0.344 0.132 0.5-0.563-0.033-1.196 0.875-1.625 1.233-0.784 0.626-1.566 1.453-2.534 1.907-0.409 0.109-0.813 0.235-1.221 0.329-0.343 0.249-0.498 0.623-0.873 0.875-0.284-0.157-0.406-0.235-0.811-0.157-0.505 0.438-1.032 1.25-1.441 1.783 0.505 0.126 1.471 0.219 1.909 0.468 0.057 0.889 0.563 1.329 0.813 2.062 0.562 0 0.966 0.063 1.279 0.299-0.466 0.702-1.125 1.14-1.784 1.608 0.064 0.109 0.159 0.185 0.221 0.312 1.471 0.046 2.848 0.657 3.753 1.376-0.096 0.188-0.189 0.391-0.284 0.579-0.844-0.14-1.685-0.296-2.534-0.454-0.091-0.218 0-0.123-0.123-0.249-0.691-0.062-1.341-0.156-2.032-0.219-0.218-0.218-0.436-0.467-0.627-0.687-1.157-0.218-2.277-0.438-3.404-0.655-0.373-0.126-0.469-0.438-0.937-0.564-0.221-0.062-0.221-0.126-0.409 0-0.127 0.126-0.25 0.235-0.404 0.342-0.032-0.030-0.094-0.047-0.128-0.062-0.151-0.563-0.404-0.797-0.75-1.157-0.966-0.031-1.838 0.095-2.745-0.169 0-0.031 0.029-0.080 0.029-0.11 1.282-0.374 2.875-1.594 3.062-2.718 0.878-0.251 1.5 0.282 2.154 0.342 0.564-0.079 1.159-0.156 1.724-0.249-0.096-0.375-0.344-0.733-0.564-1.031-0.343-0.046-0.69-0.109-1.031-0.156-0.437 0.062-0.688 0.374-1.25 0.218-0.279-0.249-0.594-0.5-0.909-0.749-0.469-0.033-0.937-0.064-1.373-0.109-1.659-0.577-0.468-1.28-3.063-0.83v0.189c1.002 2.404-0.498 2.092-2.312 2.436l-0.125 0.219c0.719 0.72 2.404 1.001 3 1.688-0.127 0.218-0.218 0.454-0.343 0.689-1.75 0.031-3.279-0.407-4.157 0.812v0.107c0.219 0.204 0.438 0.391 0.63 0.579v0.126c-0.188 0.218-0.38 0.467-0.563 0.686-0.062-0.030-0.125-0.077-0.188-0.106-0.060-0.144-0.125-0.282-0.221-0.424-3.682 0.095-2.812-1.75-4.625-2.829-0.527-0.327-1.687-0.265-1.37-1.202 0.125-0.235 0.309-0.315 0.434-0.564-0.216-0.47-0.404-0.908-0.623-1.359-2.063-0.080-2.281-1.704-2.593-3.514-0.034-0.375-0.093-0.719-0.125-1.094-0.127-0.188-0.877-0.235-1.096-0.344-0.127-0.64-0.313-1.25-0.468-2.032-0.5-0.189-0.596-0.375-0.909-0.687v-0.471c0.781 0.126 1.622-2.265 2.409-2.718 0.591-0.329 1.5-0.249 1.902-0.812-0.152-0.342-0.339-0.593-0.594-0.858-1.437 0.029-1.218 0.609-2.468 0.109-0.469-0.188-1.032 0.032-1.378-0.157-0.154-0.281-0.279-0.562-0.404-0.812-0.563-0.249-1.127-0.5-1.69-0.75-0.438-0.33-0.652-0.907-1.25-1.093 0.063 0.282 0.156 0.562 0.22 0.845 0.314 0.188 0.592 0.361 0.844 0.533 0 0.046-0.034 0.093-0.034 0.126-0.375 0.109-1.029 0.187-1.339 0.389-0.063-0.080-0.127-0.156-0.221-0.235-0.125 1.217-2.22 0.172-2.627 1.093-0.438-0.218-0.625-0.436-1.375-0.436-0.063 0.281-0.063 0.249-0.404 0.281-0.909-0.829-0.691-0.391-1.909-0.64v-0.062c0.377-0.938 1.188-1.077 1.752-1.781v-0.062c-0.062-0.033-0.095-0.079-0.187-0.109-0.156 0.125-0.283 0.249-0.466 0.407-0.129 0.249-0.411 0.344-0.754 0.405-0.091-0.079-0.187-0.172-0.277-0.249 0.216-0.375 0.529-0.438 0.745-0.795-0.031-0.047-0.031-0.109-0.059-0.173-0.128-0.032-0.253-0.032-0.409-0.062-0.248 0.468-0.625 0.889-1.31 0.922v-0.049c0.246-0.468 0.654-0.61 0.966-1.001h-0.122c-0.28 0.047-0.562 0.078-0.841 0.126-0.062 1.046-0.971 0.938-1.344 1.674l0.313 0.169c-0.034 0.093-0.063 0.156-0.063 0.235-0.096 0.014-0.154 0.030-0.25 0.062-0.125-0.331-0.372-0.391-0.687-0.517 0.091-0.125 0.187-0.249 0.282-0.344-0.191-0.235-0.313-0.404-0.313-0.812 0.437-1.077 1.279-1.968 2-2.843-0.062-0.095-0.157-0.188-0.221-0.282-0.062-0.029-0.125-0.049-0.188-0.062h-0.060c0.030 0.312 0.030 0.407-0.127 0.64-0.343 0.077-0.468 0.109-0.721-0.049v-0.062c0.096-0.282 0.221-0.545 0.344-0.812-0.282-0.187-0.532-0.312-0.937-0.404v-0.064c0.688-0.142 3.75-1.717 3.813-2.25l-0.218-0.062c0.093-0.375 0.218-0.719 0.341-1.094-0.125-0.093-0.248-0.188-0.341-0.282-0.064 0.033-0.128 0.062-0.191 0.11-0.127 0.389-0.623 1.046-1.091 1.109-0.409-0.156-0.846-0.281-1.282-0.423 0.277-0.295 0.31-0.545 0.532-0.985 0.187 0.033 0.373 0.080 0.562 0.126 0-0.405 0.031-0.312 0.247-0.58-0.468-0.016-0.595-0.109-0.75-0.404-0.154 0.046-0.313 0.106-0.466 0.171l0.152 0.342h-0.091c-0.313 0.095-0.627 0.188-0.937 0.282v-0.282c0.373-0.875 0.814-1.419 0.875-2.655-0.468 0.249-0.75 0.469-1.25 0.234-0.125-0.169-0.188-0.358-0.315-0.529l-0.123 0.062c-0.096 0.484-0.563 1.468-0.968 1.264-0.187-0.126-0.344-0.266-0.534-0.389-0.157 0.142-0.344 0.298-0.5 0.453-0.029 0.438 0.221 0.936 0.125 1.343-0.341 0.407-0.719 0.842-1.062 1.266 0.187 0.342 0.373 0.702 0.593 1.048 0.687-0.031 1.096 0.327 1.437 0.28 1.066-0.155 2.032-1.561 2.941-0.344v0.064c-0.937 0.062-1.313 0.593-2.032 0.795-1.125 0.331-2.218-0.156-3.156-0.235-0.344 0.5-0.655 0.999-1.003 1.501v0.062c0.409 0.096 0.755 0.049 1.003 0.344v0.124c-0.091 0.080-0.155 0.158-0.248 0.219-1.154-0.157-2.187 0.656-2.534 1.564-0.062 0.282-0.123 0.544-0.184 0.811-0.409 0.562-1.471 0.75-1.753 1.437 0.125 0 0.221-0.030 0.312-0.030 0 0.5-0.152 0.625-0.341 0.907 0.154 0.282 0.313 0.58 0.468 0.875 0.032 0.061-0.186 1.734-0.127 2.125 0.377 0.095 0.377 0.173 0.346 0.626-0.375 0.219-0.745 0.404-1.157 0.593-0.279 0.342-0.534 0.657-0.815 0.983-1.214 0.827-2.466 1.391-3.682 2.25-0.471 0.328-0.846 0.891-1.282 1.203-0.096 0.093-1.441 0.626-1.502 0.656-0.438 0.096-0.75-0.375-0.971-0.125-0.75 0.922-1.75 1.438-2.437 2.437v0.049c0.342 0.014 0.656 0.046 0.968 0.046-2.312 0.72-0.78 2.592-3.126 3.531-0.125-0.406-0.282-0.843-0.438-1.263-0.251-0.206-0.438-0.424-0.751-0.58-0.279 0.72-0.748 1.438-0.936 2.311 0.375 0.033 0.533 0.126 0.688 0.344-0.091 0.157-0.187 0.312-0.277 0.468-0.659-0.047-0.722-0.031-1.439 0-0.035-0.156-0.035-0.312-0.062-0.468-0.842-0.046-1.843-0.374-2.251-0.624-0.095-0.188-0.156-0.407-0.218-0.593 0.123 0 0.247-0.032 0.375-0.032 0-0.686 0.249-0.657 0.533-0.999-0.187-0.36-0.438-0.471-0.69-0.749 0.375-1.83 1.125-2.313 2.469-3.126 0.438-0.235 0.968-0.312 1.217-0.687 0.377-0.484 0.314-1.312 0.594-1.906 0.409-0.985 1.566-2.046 2.312-2.782 0.783-0.779 3.315-0.029 3.75-0.687 0.032-0.093 0.032-0.188 0.061-0.282-0.404-0.14-0.56-0.404-0.873-0.656 0.093-0.093 0.187-0.219 0.312-0.342 2.777-0.706 4.968-2.234 6.75-3.971-0.156-0.404-0.281-0.812-0.406-1.217-0.316 0.218-0.657 0.42-1.002 0.626-0.155 0.327 0.063 0.469-0.219 0.702-0.562 0.389-1.906 0.109-1.846 0.984-1 0.126-1.781-1.406-1.781-2.437 0.531-0.295 1.125-0.609 1.659-0.921-0.187-0.407-0.187-0.829 0.059-1.206-0.093-0.123-0.187-0.234-0.279-0.342-0.907 0.033-1.029-0.218-1.438-0.593 0.031-0.408 0.127-0.656 0-0.984-0.747-0.219-1-0.922-1.342-1.501h-0.75c-0.125 0.079-0.249 0.142-0.344 0.234v0.688c0.628 0.281 0.75 0.675 0.563 1.282 0.096 0.095 0.221 0.188 0.282 0.282 0.216-0.016 0.438-0.033 0.653-0.062v0.123c0.096 0.282-1.25 4.001-1.562 4.096-0.282-0.126-0.438-0.282-0.626-0.156-0.438 0.248-0.815 0.498-1.217 0.749 0.125 0.249 0.189 0.484 0.093 0.861-0.187 0.172-0.377 0.342-0.563 0.514-0.34-0.093-0.684-0.188-1.062-0.278 0.060 0.062 0.096 0.156 0.126 0.218 0.096 0.031 0.218 0.080 0.312 0.126-0.125 0.125-0.249 0.265-0.374 0.407h-0.061c-0.249-0.095-0.5-0.155-0.78-0.235-0.344 1.859-1.719 1.356-3.125 2.078-1.564 0.812-2.907 2.423-4.563 3.484-1.937 1.172-1.812 4.515-3.812 5.532-1.566 0.779-2.721 0.733-3.877-0.173-0.249-0.249-0.468-0.5-0.686-0.749-0.438-0.109-0.875-0.218-1.283-0.342-1.501-0.971-2.094-2.251-4.279-2.658-1.124-0.218-1.533 0.766-2.188 1.031-0.468 0.187-0.906-0.125-1.22-0.125-1.308 0.030-1.529 1.093-3 0.062-2.309-1.625-0.249-2.811-0.935-4.627-0.562-0.702-1.812-0.716-2.469-1.311-0.096-0.187-0.219-0.359-0.282-0.532-1.19-0.78-2.814-0.092-3.593-1.436 0.060-0.251 0.156-0.251 0.282-0.408-0.033-0.045-0.033-0.096-0.063-0.125-1.189-0.438-2.937-2.656-3.249-3.984 0.25-0.484 0.438-0.97 0.657-1.438 0.282-0.14 0.593-0.312 0.875-0.454v-0.186c-1.124-0.58-2.5-1.548-2.72-2.938-0.061-0.312 0.125-0.344 0.035-0.593-1.066-0.202-2.189-0.156-2.626-0.968-0.467-0.782-0.376-1.11-1.063-1.624-0.092 0.092-0.218 0.188-0.344 0.295-0.498-0.096-0.719-0.295-1.028-0.408-1.531 0.017-3.060 0.049-4.564 0.049-0.279-0.251-0.593-0.5-0.873-0.749-1.001-0.329-1.377-0.126-1.625-1.204h-0.062c0 0.093-0.032 0.188-0.060 0.298h-0.035c-0.030-0.251-0.030-0.235-0.123-0.377-1.157-0.298-1.907 0.688-2.094 1.625-0.157 0.062-0.279 0.126-0.435 0.188 0.029 0.998-1.252 2.092-2.628 1.733-0.374-0.202-0.814-0.388-1.187-0.576-0.468-0.096-0.659 0.155-0.938 0.216-0.878 0.219-1.436-0.093-1.969-0.342v0.126c-0.156 0.469 0.312 1.015 0.404 1.435 0.157 0.563-0.060 1.127-0.218 1.392 0 0.033 0.032 0.078 0.032 0.109 0.093 0.454 0.219 1.031 0.315 1.501-0.036 0.030-0.096 0.079-0.129 0.124-0.311-0.124-0.779-0.249-1.093-0.186-0.033 0.155-0.061 0.311-0.124 0.467v0.063c0.531 0 0.748 0.109 0.999 0.405-0.093 0.158-0.156 0.315-0.249 0.47-0.060-0.030-0.093-0.077-0.188-0.126-0.124-0.374-0.373-0.467-0.717-0.64-0.313 0.109-0.344 0.077-0.47 0.359 0.25 0.547 0.408 1.109 0.345 1.843 1.468 0.798 2.122 5.721 1.28 7.5 0.155 0.282 0.749 2.079 0.688 2.188-0.251 0.783-0.656 1.219-1.501 1.406-0.033 0.219-0.033 0.438-0.062 0.626 0.344 0.657 0.842 0.906 1.78 0.935h0.784c0.093 0.315 0.218 0.61 0.312 0.923 1.285 0.5 2.125-0.188 3.377-0.408 1.001-0.172 1.714 0.484 2.403 0.64 0.157 0.033 2.562-0.656 3.25-0.749 1.5-0.249 3.967-0.563 4.688 0.282 1.188-0.344 1.937-0.938 3.405-0.689 0.501 1.063 0.782 2.472 1.094 3.877 0.156 0.064 0.313 0.14 0.468 0.22-0.091 0.093-0.153 0.202-0.247 0.282-0.093-0.064-0.189-0.142-0.282-0.219 0 0.968 0.093 2.123 0.467 2.782h0.062c0.313-0.391 0.628-0.782 0.907-1.157-0.185 0.875-0.749 1.25-1.217 1.843 0.064 0.484 0.282 0.78 0.468 1.157-0.654 1.391-0.438 0.782-1.654 1.391-0.375 0.452-0.752 0.875-1.124 1.327 0.123 0.218 0.185 0.423 0.313 0.64-0.438 0.297-1.189 0.546-1.501 0.984 0.091 0.188 0.187 0.377 0.277 0.563-0.091 0.062-0.187 0.123-0.277 0.187-0.251-0.093-0.533-0.156-0.751-0.249-0.999 0.905-2.658 1.28-4.062 1.156-0.033 0.11-0.033 0.187-0.060 0.312-0.222 0.249-0.628 0.189-0.815 0.5 0.374 0.062 0.719 0.126 1.062 0.189v0.049c-0.031 0.077-0.062 0.171-0.062 0.235-0.185 0.029-0.593 0.062-0.533 0.235 0.375 0.049 0.375 0.142 0.533 0.405-0.533 0.016-0.875-0.047-1.217-0.172 0.031 0.249 0.031 0.5 0.062 0.749 0.812 0 1.342 0.531 2.032 0.562 0.030-0.032 0.061-0.062 0.092-0.125 0 0 0.783-0.062 1.001 0.093 0.062 0.125 0.126 0.251 0.156 0.391 0.406 0.047 0.815 0.078 1.215 0.109 0.252-0.329 0.503-0.656 0.754-0.971 0.653-0.029 1.966 0.266 2.494 0.5v-0.374c0.411 0 0.755 0.033 0.971 0.218-0.342 0.468-0.249 1.031-0.216 1.783-0.533 0.282-0.877 1.031-0.971 1.75 0.72-0.096 1.157-0.125 1.811 0-0.061-0.611 0.030-0.875 0.249-1.282 1.312 0.64 2.782-0.657 3.875 0.407-0.218 0.062-0.377 0.107-0.593 0.156 0.033 0.126 0.033 0.249 0.061 0.375 0.784 0.906 2.158 0.686 3.188 1.375 0.906 0.594 0.438 1.86 0.815 2.938 0.404 0.218 0.842 0.438 1.279 0.64l0.971 0.062c0.499 0.329 1.001 0.657 1.501 0.985 0.687 0.281 1.499-0.344 1.969 0.218-0.128 0.312-0.342 0.501-0.657 0.64 0.687 0.58 1.376 1.171 2.032 1.734 0.375 0.875 0.72 1.718 1.031 2.596 0.312 0.093 0.594 0.153 0.873 0.249 0.282-0.219 0.471-0.375 0.657-0.719-0.062-0.093-0.126-0.218-0.187-0.342-0.249-0.062-0.156-0.062-0.407-0.062 0.032-0.499 0.032-0.657-0.093-0.968 0.656-0.096 1.028-0.406 1.468-0.124 0.282 0.438 0.593 0.342 0.686 0.999-0.375 0-0.467 0.076-0.686 0.218 0.031 0.375 0.126 0.438 0.249 0.641-0.249 0.014-0.502 0.045-0.749 0.045 0 0.657 0 0.846 0.093 1.346 0.875 0.279 2.657 1.204 3.782 0.75 0.093-0.282 0.467-0.486 0.688-0.687h0.216c0.033 0.045 0.066 0.109 0.066 0.156-0.252 0.249-0.438 0.202-0.503 0.656 0.033 0.173 0.064 0.342 0.093 0.498 0.657 0.282 1.563 0.375 2.565 0.361 0.126-0.438 0.156-0.626 0.219-0.984 0.062-0.033 0.125-0.080 0.188-0.11 0.031 0.017 0.096 0.031 0.154 0.047 0.062 0.093 0.125 0.157 0.189 0.235-0.093 0.17-0.157 0.342-0.248 0.515 0.312-0.093 0.594-0.189 0.87-0.282-0.247 0.533-0.123 0.657 0.066 1.22 0.498-0.049 1.028-0.235 1.435 0-0.188 0.093-0.438 0.186-0.626 0.282-0.032 0.093-0.062 0.188-0.062 0.282 0.096 0.096 0.188 0.156 0.282 0.251-0.126 0.125-0.282 0.249-0.408 0.389 0.126 0.107 0.188 0.142 0.314 0.295-0.5-0.029-0.749-0.156-0.908 0.218 0.468 0.063 0.75 0.219 1.001 0.471-0.126 0.563-0.719 0.859-0.842 1.327-0.157 0.423 0 1.643-0.062 2.203-0.533 0.033-0.502 0.22-0.749 0.468-0.096-0.108-0.156-0.2-0.251-0.312-0.154 0.096-0.312 0.157-0.468 0.25 0.189 0.483 0.438 0.718 0.722 1.093-0.062 0.955-0.845 1.625-0.188 2.596 0.312 0.029 0.906-0.455 1.217-0.282 0.342 0.187 0.407 0.842 0.877 1.093 0.091-0.282 0.219-0.533 0.342-0.811 0.217 0.029 0.279 0.045 0.373 0.171 0.062 0.484 0.126 0.968 0.188 1.455 0.842 0.031 1.688 0.124 2.31-0.188 0.036-0.438 0-1.217 0.282-1.375 0.468-0.033 0.938-0.033 1.405-0.061 0.247-0.252-0.249-1.252-0.344-1.438-0.186-0.062-0.342-0.109-0.531-0.173-0.125 0.142-0.22 0.295-0.344 0.455-0.186-0.095-0.404-0.188-0.558-0.282 0.311-0.875-0.377-0.999-0.597-1.75-0.249-0.016-0.502-0.033-0.749-0.046 0.062-0.109 0.093-0.189 0.156-0.282-0.438-0.484-0.688-1.263-0.782-2.092 0.626-0.219 1.75-1.048 1.186-1.89 0.471 0 0.471 0.031 0.595-0.344 0.502 0.237 0.562-0.124 1.095-0.249 0.438 0.062 0.908 0.095 1.343 0.125 0.033-0.125 0.096-0.235 0.156-0.344-0.282-0.484-0.5-0.593-0.935-0.938 0.060-0.047 0.091-0.109 0.123-0.173 0.315-0.093 0.594-0.079 0.845 0.126h0.093c0.032-0.126 0.060-0.235 0.093-0.359h0.656c0.282 0.719 3.624 1.843 4.157 1.812 0.438-1.25 1.282-0.733 2.032-1.11 0.030-0.329 0.060-0.657 0.091-0.984 0.658-0.249 1.189-0.501 1.939-0.75-0.033 0.533-0.093 0.706-0.124 1.329 3.184 0.219 5.092 1.767 7.746 2.609 0.596 0.189 2.564 0.673 2.532-0.125 0.221-0.312 0.377-0.624 0.468-1.092 1.625-0.593 2.378 0.282 3.534 0.875 0.030 0.468 0.062 1.028 0.221 1.485 1.027-0.049 2.563-0.359 3.31 0.060 0.031 0.391-0.030 0.501-0.125 0.812 0.095 0.016 0.19 0.049 0.281 0.049-0.125 0.249-0.187 0.014-0.125 0.249-0.247 0.688-1.19 3.955-0.563 5.252 0.282 0.235 0.563 0.453 0.875 0.688 0 0.405 0.034 0.812 0.034 1.217 0.313 0.374 0.627 0.766 0.937 1.157 1 0 1.404 0.5 2.437 0.532v-0.404c0.406-0.314 0.845-0.626 1.252-0.938 0.152-0.342 0.282-0.733 0.407-1.095 0.936-0.844 2.563-0.265 2.936 0.687-0.468 1.658 0.157 2.656 0.375 4.127-0.127 0.062-0.252 0.139-0.375 0.218-0.186-0.218-0.436-0.438-0.688-0.64-0.375 0.169-0.562 0.312-1.091 0.467 0.029 0.515 0.029 1.048 0.062 1.548-0.187-0.125-0.313-0.218-0.534-0.218-0.157 0.593-0.157 0.938-0.407 1.501 0.375 0.126 0.314 0.251 0.25 0.626 1.219 0.062 1.75 0.498 2.527 0.936 0.378-0.109 0.534 0 0.941-0.062 0.031 0.142 0.062 0.267 0.091 0.407 0.471-0.093 0.909-0.187 1.348-0.282 0.154 0.126 0.312 0.252 0.468 0.408 0.344-0.282 1.155 0.061 1.844-0.077 1.404-0.235 2.623-0.517 4.123-0.64 0.436-0.016 0.781 0.657 0.968 0.593 0.062-0.076 0.154-0.156 0.223-0.218 0.029 0.5-0.284 0.626-0.6 0.97 0.063 0.125 0.095 0.265 0.132 0.407 0.122 0 0.245 0.031 0.372 0.062 0.183-0.266 0.405-0.499 0.688-0.25-0.095 0.282-0.095 0.188 0.058 0.408 0.438 0.123 0.409-0.126 0.909-0.22 0.372 0.391 0.593 0.922 1.281 0.971 0.719-0.235 1.157-0.593 2.034-0.626 0.125 0.095 0.248 0.188 0.402 0.282-1.341 2.467-3.125 0.126-4.466 2.092 0.091 0.312 0.434 1.064 0.152 1.048-0.062-0.142-0.123-0.282-0.219-0.421-0.906-0.079-2.158-0.454-2.684-0.971-0.221 0.093-0.411 0.219-0.594 0.342-0.468-0.079-0.533-0.218-0.754-0.467-0.341 0.125-0.687 0.218-0.996 0.344v0.531c-0.038-0.344-0.127-0.719-0.408-0.876-0.469-0.376-1.217 0-1.378-0.749h-0.059c-0.25 0.173-0.505 0.344-0.75 0.531-0.223-0.546-1.032-0.626-1.5-0.875-0.034 0.095-0.096 0.156-0.128 0.218-0.688-0.218-0.968-0.327-1.377-0.858-0.468 0.235-0.623 0.123-1.214 0v0.235c-0.377-0.203-1.531-0.812-2.127-0.345-0.407 0.157-0.591 0.438-0.75 0.812 0.096 0.219 0.159 0.408 0.282 0.626-0.721 0.031-1.096-0.171-1.564-0.344 0.032 0.219 0.062 0.468 0.062 0.687-0.687-0.235-0.812 0.077-1.343 0.342-1.25 0.657-1.471 1.767-1.123 3.471 0.063 0.375 0.125 0.733 0.219 1.093-0.314 0.501-0.623 0.985-0.937 1.469 0.093 0.656 0.281 1.093 0.281 1.952-0.22 0.188-0.563 0.36-0.813 0.58 0.312 1.031 0.75 1.343 1.404 1.969-0.031 0.251-0.091 0.5-0.125 0.751 0.53 0.172 0.907 0.096 1.439-0.126 1.309 0.687 0.654 1.688 1.466 2.562v-0.125c0.095-0.188 0.22-0.344 0.343-0.531h0.282c0.595 0.889 4.654 5.062 5.531 5.311 0.378 0 0.748-0.030 1.096-0.030 0.029 0.327 0.060 0.516-0.032 0.687-0.156 0.156-0.315 0.328-0.468 0.533 0.125 0.328 0.312 1.091 0.152 1.436-0.062 0.157-0.185 0.344-0.279 0.501-1.312 0.016-1.657 0.5-2.375 1.046-0.748 0.017-2.562-0.407-2.748-0.295-0.473 0.312-0.938 0.626-1.407 0.938-1.029-0.498-1.063-1.624-1.906-2.266-0.687-0.517-0.969 0.080-1.657-0.859 0.187-0.282 0.598-0.593 0.407-0.921-0.221-0.467-0.904-1.017-1.404-1.219 0.063-0.047 0.125-0.109 0.186-0.173 0.221-0.484 0.784-0.749 1.096-1.217-0.063-0.046-0.096-0.125-0.125-0.171-0.971-0.468-1.031-1.452-1.688-2.265-0.873-0.593-1.812-1.219-2.718-1.843-0.187 0.156-0.409 0.279-0.628 0.404-0.593-0.28-0.593-0.812-1.027-1.155-0.968-0.704-1.284-0.704-2.036-1.721h-1.15c0.092-0.375 0.246-0.795 0.123-1.048-0.187-0.234-0.375-0.5-0.562-0.749-0.377 0.109-0.72 0.235-1.063 0.36 0.188-1.405 0.687-1.672 0.188-3.249-0.223-0.049-0.437-0.125-0.656-0.172-0.253-0.938 0.656-3.297 0.25-3.64 0-0.033 0.031-0.062 0.031-0.11 0.688-0.016 0.873-0.281 1.25-0.422 0.219 0.029 0.438 0.062 0.687 0.062 0.377-0.908 1.098-1.69 2.252-1.843 0.187-0.719 0.592-0.766 0.625-1.624h-0.502c-0.245-0.282-2.091-1.767-2.841-1.376-0.598 0.314-3.036 1.094-3.377 0.752-0.060-0.157-0.128-0.266-0.219-0.408h0.062c1.252 0.375 1.721-0.687 2.721-0.875 0.968-0.156 1.591 0.782 2.563 0.407v0.296h0.279c0-0.049 0.030-0.077 0.030-0.11 0.033-0.093 0.063-0.187 0.063-0.312-0.25 0-0.5-0.033-0.75-0.033 0.063-0.218 0.063-0.391 0.127-0.593-0.563-0.158-0.909-0.358-1.032-0.971-0.186-0.031-0.341-0.060-0.531-0.077-0.032 0.017-0.062 0.049-0.062 0.077v0.861c-0.782-0.295-0.13-1.796-1.716-1.515-0.036-0.095-0.063-0.219-0.063-0.345-0.532-0.032-1.096-0.032-1.625-0.062 0.125-0.562 1.502-2.218 0.625-2.874h-0.56v-0.704c0.123-0.049 0.248-0.109 0.405-0.171-0.155-0.389 0.095-0.687-0.062-0.938-0.157-0.374-0.438-0.669-0.534-1.187 0-0.377-0.031-0.735-0.060-1.11-0.532-0.984-1.063-1.969-1.624-2.939-0.033 0.046-0.063 0.079-0.095 0.11-0.187 0.125-0.373 0.265-0.595 0.407-0.72-0.155-1.279-0.249-2.31-0.218-0.035-0.157-0.063-0.312-0.093-0.471-0.251 0.096-0.188 0.158-0.342 0.062-0.533-0.235-0.659-0.673-0.877-1.217 0.218-0.358 0.5-0.517 0.188-0.812-0.126-0.125-0.188-0.234-0.314-0.345-1.124 0.251-2.092-0.295-3.469 0 0.127 0.533 0.344 0.657 0.467 1.19-0.624 0.514-1.062 1.295-1.433 2.045 0.186 0.093 0.372 0.187 0.562 0.295 0 0.156-0.035 0.282-0.035 0.455 0.159-0.015 0.346-0.031 0.503-0.050 0.031 0.142 0.091 0.282 0.125 0.455-0.844 0.859-1.75 1.452-2.188 2.953-0.156 0.014-0.312 0.030-0.467 0.061 0.029 1.063-0.282 1.282-0.69 1.843 0.157 0.407 0.468 1.064 0.408 1.501-0.408 0.126-0.408 0.109-0.845 0 0 0.156-0.030 0.311-0.030 0.468-0.186-0.031-0.342-0.064-0.533-0.080 0 0.686-0.033 2.015-0.5 2.25 0.094 0.455 0.313 0.58 0.281 1.047-0.032 0.031-0.093 0.047-0.125 0.061-1.001-0.42-1.032 0.205-1.501 0.875 0.218 0.282 0.218 0.377 0.125 0.812-0.156-0.109-0.282-0.219-0.407-0.312-0.030-0.845-0.186-1.597-0.75-2.002-0.5-0.342-0.938 0.064-1.282-0.125-0.5-0.219-0.5-0.561-0.875-0.875-1.001-0.936-2.248-1.562-3.218-2.53-0.626-0.312-2.564-0.561-3.186-0.405-0.061 0.342-0.189 0.375-0.468 0.517-0.096-0.11-0.191-0.237-0.282-0.329-0.125 0.062-0.221 0.14-0.342 0.218 0.124 0.11 0.219 0.219 0.342 0.329-1.031 0.266-1.657 0.735-2.781 1.048-0.187 0.36-0.342 0.686-0.533 1.046 0.222 0.391 0.375 0.58 0.249 1.048 0.156-0.030 0.315-0.030 0.468-0.062 0-0.173 0.035-0.359 0.035-0.531 0.090 0.049 0.123 0.095 0.185 0.125 0.22 0.343 0.468 0.033 0.812-0.171-0.060 0.078-0.093 0.142-0.186 0.218 0.153 0.235 0.186 0.297 0.533 0.359v0.062c-0.628-0.030-0.502-0.187-0.91 0.109-0.123 0.295-0.153 0.14-0.092 0.406 0.374 0.188 0.72 0.391 1.062 0.58v0.062c-0.437-0.046-0.5 0-0.812 0.156 0.218 0.282 0.404 0.406 0.593 0.75-0.249-0.219-0.533-0.438-0.752-0.688h-0.092c0 0.406-0.093 0.468-0.34 0.641 0.029-0.235 0.060-0.455 0.091-0.703-0.343-0.096-0.438-0.202-0.876-0.218-0.061 0.095-0.125 0.188-0.186 0.281 0-0.096-0.031-0.189-0.062-0.281-0.095 0.062-0.188 0.125-0.282 0.156-0.062 0.282-0.156 0.563-0.249 0.812 0.249 0.281 0.468 0.562 0.719 0.811 0-0.032 0.033-0.062 0.061-0.109 0.032-0.142 0.062-0.298 0.125-0.454h0.033v0.334c0.312-0.156 0.467-0.249 0.749-0.125-0.061 0.155-0.032 0.095-0.032 0.235 0.562 0.014 0.875 0.186 1.126 0.516-0.344-0.142-0.594-0.281-1.126-0.281-0.154 0.123-0.279 0.218-0.438 0.341 0.093 0.096 0.157 0.189 0.25 0.282 0.438 0.157 0.562 0.501 0.625 1.001-1.002 0.093-1.528-0.315-2.031 0.404 0.374 0.344 0.782 0.719 1.156 1.032-0.092 0.109-0.185 0.218-0.281 0.345-0.468-0.205-0.719-0.142-1.094 0.123-0.033 0.095-0.062 0.188-0.093 0.282 0.189 0.75 0.531 0.859 1.029 1.264l-0.061 0.109c-0.533 0.219-0.626 0.577-0.938 1.001 0.344 0.533 0.125 1.219 0.374 1.906 0.563 0.033 1.189 0.063 1.751 0.109v0.235c-0.312 0.188-0.748 0.312-0.968 0.624 0.030 0.157 0.062 0.314 0.062 0.47 0.936 0.313 1.343 1.048 2.279 0.687 0.688 0.282 0.593 0.517 0.782 1.279 1.001-0.062 1.845-0.623 2.438 0.064-0.658 0.095-1.312 0.377-1.438 1.030 0.093 0.096 0.187 0.203 0.249 0.295 1.217 0 2.31 0.033 3.093-0.295-0.031 0.955 1.282 2.686 2.034 2.188 0.154-0.109 0.342-0.218 0.498-0.331 0.060 0.033 0.125 0.080 0.188 0.11 0.278 0.749 1.062 0.904 1.435 1.5 0.062 0.312 0.126 0.594 0.189 0.923 0.406 0.858 1.971 2.139 2.811 2.545 0.657-0.125 0.875-0.424 1.439 0v0.062c-0.033 0.172-0.128 0.342-0.156 0.531 0.749 0.624 1.187 1.436 1.843 2.125 0.344-0.109 0.626-0.080 1.095-0.062 0 0.404-0.032 0.812-0.062 1.217-0.188 0.046-0.375 0.125-0.562 0.173 0.562 1.016 0.595 2.25 2.065 1.906 0.058 0.391 0.124 0.768 0.187 1.172 0.372 0.033 0.779 0.096 1.152 0.156v0.064c-0.312 0.562-0.781 0.735-1.152 1.219 0.186 0.311 0.372 0.593 0.558 0.907 0.594-0.016 1.032 0.031 1.625 0.063v0.062c-0.187 0.329-0.373 0.657-0.56 0.984 0.031 0.033 0.091 0.077 0.187 0.109 0.655 0.343 2.158 0.545 2.469 1.218-0.344 0.093-0.438 0.218-0.533 0.58 0.563 0.156 0.722 0.544 1.094 0.858 0.502-0.047 0.784-0.188 1.156-0.282 0.25 0.406 0.438 0.484 0.938 0.624v0.345c-0.282 0.219-0.5 0.468-0.408 0.703 0.563 0.218 0.626 0.875 1.218 0.922h0.032c0.249-0.438 0.408-0.564 0.815-0.812 0.062 0.030 0.125 0.079 0.187 0.124 0.156 0.251 0.343 0.5 0.533 0.751-0.095 0.421-0.22 0.843-0.281 1.263 0.591-0.125 1.216-0.109 1.531 0.362v0.060c-0.22 0.188-0.438 0.377-0.688 0.562 0.187 0.188 0.344 0.408 0.53 0.594 1.031 0.312 0.72 0.938 1.311 1.375 1.157 0.846 1.407-0.374 1.971 1.86 0.221-0.204 0.473-0.389 0.687-0.594 1.221 0.455 1.502-0.172 2.755-0.295 0.436 0.75 1 2.436 1.781 2.844 0.062-0.031 0.091-0.064 0.154-0.109 0.032-0.11 0.094-0.203 0.094-0.295-0.187-0.501-0.282-1.111-0.438-1.736 0.69 0.5 1.159 1.142 1.377 2.077 1.063 0.126 1.437 0.517 1.875 1.221 0.062-0.017 0.096-0.033 0.188-0.063 0.341-0.312 0.75-0.656 1.123-0.984 0.938 3.235 1.781 1.641 3.473 0.766 0.245 0.797 0.904 2.092 1.559 2.469 0.375 0.216 0.814-0.096 1.096 0.125 1.312 1.283 1.752 2.032 4.282 1.844-0.937-1.188-1.969-1.407-1.969-3.626 0.155-0.031 0.313-0.049 0.469-0.064 0.595 1.47 2.245 3.002 3.527 3.861 0.036-0.844 0.067-1.689 0.127-2.549 1.19 0.564 1.813 1.47 2.252 2.782 0.721 0.125 1.721 0.484 2.188-0.109-0.627-0.906-0.781-1.359-1.156-2.546 0.375-0.079 0.748-0.156 1.093-0.235 0.15 1.062 0.753 1.859 1.378 2.437 1.122-0.33 1.75-1.047 2.713-1.455 0.469-0.205 1.157 0.031 1.75-0.172 0.255-0.158 0.505-0.297 0.753-0.453 0-0.219 0.029-0.439 0.057-0.657-1.118-1.11-3.214-0.875-5.373-0.846 0.691-0.875 1.941-1.093 2.532-2.031 1.346 0.092 2.313 0.438 3.375-0.235 0.315 0.235 0.843 0.235 1.252 0.407 0.562 0.328 1.118 0.657 1.687 0.984 0.034-1.921 1.5-2.217 3.19-2.545 0.030-0.421 0.058-0.844 0.092-1.266 0.281 0.218 0.531 0.422 0.815 0.626 1.625-0.124 3.279-0.219 4.902-0.342 0.968-0.344 1.968-0.688 2.966-1.032 0.598-0.202 1.221-0.407 1.844-0.593 1.098-0.907 2.186-1.843 3.286-2.75 1.156-0.377 2.309-0.719 3.468-1.048 1.094-0.361 2.182-1.157 2.996-1.796-0.032-1.236 0.095-1.579 0.723-2.188 0.029-1.671-1.157-2.376-2.159-3.14-4.782-3.593-12.091-0.205-16.657 1.157-0.625 0.109-1.245 0.202-1.875 0.295-0.841 0.471-1.12 2.281-3.154 1.282 1.096-1 2.063-2.217 3.313-3.016 0.748-0.484 2.188-0.626 2.782-1.25 0.841-0.954 0.468-2.359-0.628-2.672 0.062-0.768 1.527-4.593 1.937-4.796 0.782-0.391 1.969-0.172 2.659-0.516 0.096-0.359 0.313-0.861 0.593-1.063 0.469-0.282 1.253-0.126 1.902-0.282 1.473-0.344 3.753-0.5 2.378 1.906-0.498 0.061-1.219-0.156-1.75 0.061-0.594 0.251-1.691 1.5-1.75 2.080 0.5 0.452 0.47 1.141 1.404 1.141 1.559-0.939 3.5-1.843 5.498-2.407 0.843-0.249 1.502 0.109 2.122 0.188 0.313-0.125 0.63-0.218 0.943-0.295 1.091 1.592-1.221 2.702-1.281 4.266 1.526 1.906 4.875 1.67 6.031 4.064 2.091 0.249 3.586-1.608 5.123-1.672v0.108c0.059 0.314 0.125 0.658 0.154 0.971 0.562 1.748 1.032 1.531 0.313 3.702-0.659 0.077-1.098 0.358-1.404 0.795 0.059 0.049 0.091 0.080 0.125 0.126 0.468 0.733 0.937 1.468 1.407 2.188 0.341 1.594-1.253 1.718-1.101 3.060 0.752 0.188 1.191-0.123 1.941-0.281 0.906 0.094 1.779 0.158 2.656 0.218 1.253-0.218 2.284-2.36 2.779-3.405-2.063-0.063-4.25-0.017-4.622-1.843 1.843-1.406 2.627-2.877 5.713-2.234 0.534 0.079 1.032 0.172 1.568 0.267 0.841 0.608 0.498 2.546 1.282 3.188 0.468 0.14 0.909 0.263 1.377 0.405 1.902 0.779 3.966 1.654 5.996 2.469 1.218 0.5 2.473 1.031 3.656 1.532 0.096-0.328 0.221-0.624 0.279-0.936 0.064-0.032 0.125-0.032 0.189-0.062 2.281 0.438 0.343 2.267 3.813 2.251-0.094-0.655-0.219-1.25-0.219-2.125-0.375-0.063-0.72-0.126-1.061-0.188-0.162-0.249-0.221-0.359-0.221-0.812 1.377-0.467 1.75 0.155 3.404 0.188 0.063-0.344 0.157-0.391 0.409-0.533 0.748 0.471 0.718 1.69 1.559 2.032 0.755 0.313 2.344 0.563 3.282 0.282 0.562-0.157 1.25-0.719 2.157-0.471 0.375 0.314 0.747 0.626 1.156 0.938 1.5 1.127 2.503 1.032 4.094 0.299-0.28-0.361-0.564-0.703-0.814-1.047 0.221-0.64 1.125-1.25 1.971-0.812 0.123 0.297 0.284 1.030 0.469 1.345 1.563 0.219 2.561-0.188 2.656 1.843-0.562 0.706-1.125 1.421-1.687 2.141 0.032 0.033 0.062 0.080 0.091 0.109 0.599 0.314 0.907 1.032 1.625 1.206 1.623 0.375 4.662-0.484 5.816-0.798 5.184-1.468 9.904-3.218 13.343-6.404 0.277-0.033 0.498 0 0.625 0.093 0.655 0.438 1.527 1.984 1.685 2.843-1.37-0.202-2.277 0.189-2.591 1.312-0.125 0.501 0.154 1.188-0.125 1.516-0.813 0.798-2.716 0.391-3.346 1.391 0.373 2.032 2.532 1.25 1.313 4.671-0.473 0.046-0.973 0.079-1.44 0.125-0.277 1.281 0.345 1.985 1.186 2.516 0.691-0.468 1.38-0.938 2.066-1.439 4.875-4.031 9.596-8.219 14.157-12.578-0.128-0.172-0.25-0.342-0.373-0.578-0.125-0.546-0.25-1.094-0.375-1.624-0.38-0.939-1.688-2-2.437-2.593-0.563-0.454-1.565-0.64-1.846-1.346 0.096-0.313 0.221-0.658 0.341-0.97-0.654-0.234-1.279-0.467-1.906-0.687-0.373 0.157-0.719 0.295-1.032 0.455-1.091 0.42-2.372 0.42-3.527 0.109 0.687-1.564 2.562-1.783 4.56-2.065 0.471 0.017 0.937 0.033 1.44 0.060 0.719-0.153 1.591-0.498 2.373-0.123 0.718 1.61 2.409 1.783 3.688 2.827 0.532 0.422 0.469 1.281 0.873 1.843 0.313 0.188 0.63 0.389 0.943 0.58 0.213 0.282 0.402 0.545 0.652 0.812 6.784-6.751 13.245-13.829 19.372-21.283 10.813-15.001 19.721-31.343 27.316-48.203 9.341-23.577 16.341-48.172 20.437-73.205 0.997-9.938 1.341-19.809 0.559-29.766-1.21-6.675-2.712-13.283-4.367-19.861z" />
</font>
</defs>
</svg>
